<svg width="672" height="113" xmlns="http://www.w3.org/2000/svg" xmlns:xlink="http://www.w3.org/1999/xlink" overflow="hidden"><defs><clipPath id="clip0"><rect x="40" y="29" width="99" height="54"/></clipPath><clipPath id="clip1"><rect x="40" y="29" width="99" height="54"/></clipPath><clipPath id="clip2"><rect x="40" y="29" width="99" height="54"/></clipPath><clipPath id="clip3"><rect x="40" y="29" width="99" height="54"/></clipPath><clipPath id="clip4"><rect x="170" y="29" width="99" height="54"/></clipPath><clipPath id="clip5"><rect x="170" y="29" width="99" height="54"/></clipPath><clipPath id="clip6"><rect x="170" y="29" width="99" height="54"/></clipPath><clipPath id="clip7"><rect x="170" y="29" width="99" height="54"/></clipPath><clipPath id="clip8"><rect x="300" y="29" width="99" height="54"/></clipPath><clipPath id="clip9"><rect x="300" y="29" width="99" height="54"/></clipPath><clipPath id="clip10"><rect x="300" y="29" width="99" height="54"/></clipPath><clipPath id="clip11"><rect x="300" y="29" width="99" height="54"/></clipPath><clipPath id="clip12"><rect x="430" y="29" width="99" height="54"/></clipPath><clipPath id="clip13"><rect x="430" y="29" width="99" height="54"/></clipPath><clipPath id="clip14"><rect x="430" y="29" width="99" height="54"/></clipPath><clipPath id="clip15"><rect x="560" y="29" width="99" height="54"/></clipPath><clipPath id="clip16"><rect x="560" y="29" width="99" height="54"/></clipPath><clipPath id="clip17"><rect x="560" y="29" width="99" height="54"/></clipPath></defs><g><rect x="0" y="0" width="672" height="112.668" fill="#FFFFFF"/><g><g><g><path d="M0 91.7294 137.977 91.7294 137.977 0 0 0Z" fill="#FFFFFF" transform="matrix(1.00295 0 0 1 9.30816 19.9412)"/><path d="M30.7604 62.9187 128.429 62.9187 128.429 9.54731 30.7604 9.54731Z" fill="#FFFFFF" transform="matrix(1.00295 0 0 1 9.30816 19.9412)"/><path d="M0 0 0 4.64105" stroke="#000000" stroke-width="1.06081" stroke-linejoin="round" fill="none" transform="matrix(1.00295 0 0 1 48.3224 82.8598)"/><path d="M4.71619 3.55293C4.71619 4.23895 4.70566 5.40396 4.23369 6.30053 3.81787 7.08656 3.15465 7.36553 2.57215 7.36553 2.03175 7.36553 1.34748 7.1199 0.92113 6.31106 0.47197 5.47064 0.426352 4.42844 0.426352 3.55293 0.426352 2.91428 0.438634 1.94051 0.786031 1.08606 1.26853-0.0684268 2.13351-0.22458 2.57215-0.22458 3.08798-0.22458 3.87401-0.0122817 4.3337 1.05272 4.67057 1.82822 4.71619 2.73532 4.71619 3.55293ZM2.57215-0.0456179C1.85279-0.0456179 1.42644 0.570224 1.26853 1.42468 1.14571 2.08439 1.14571 3.04938 1.14571 3.6775 1.14571 4.54073 1.14571 5.25834 1.29134 5.94261 1.50539 6.89356 2.13351 7.18657 2.57215 7.18657 3.03183 7.18657 3.62662 6.88304 3.84068 5.96542 3.9863 5.32677 3.99683 4.57407 3.99683 3.6775 3.99683 2.94762 3.99683 2.05105 3.86348 1.38959 3.62662 0.166681 2.96516-0.0456179 2.57215-0.0456179Z" transform="matrix(1.00295 0 0 -1 45.3308 99.9399)"/><path d="M0 0 0 4.64105" stroke="#000000" stroke-width="1.06081" stroke-linejoin="round" fill="none" transform="matrix(1.00295 0 0 1 89.1378 82.8598)"/><path d="M2.48091 3.78453C3.481 3.78453 3.91963 2.91604 3.91963 1.91244 3.91963 0.561451 3.20027 0.0438634 2.54934 0.0438634 1.95455 0.0438634 0.987803 0.34038 0.684268 1.21589 0.740413 1.19308 0.796558 1.19308 0.852704 1.19308 1.1229 1.19308 1.32467 1.37205 1.32467 1.6633 1.32467 1.98789 1.07728 2.13351 0.852704 2.13351 0.663214 2.13351 0.370207 2.04403 0.370207 1.6247 0.370207 0.587769 1.38082-0.22458 2.57215-0.22458 3.81787-0.22458 4.77233 0.75445 4.77233 1.90367 4.77233 2.99499 3.87401 3.78453 2.80725 3.90735 3.65996 4.08456 4.48108 4.8355 4.48108 5.84084 4.48108 6.70232 3.59329 7.3322 2.58267 7.3322 1.56154 7.3322 0.663214 6.71811 0.663214 5.84084 0.663214 5.4566 0.954467 5.38993 1.10009 5.38993 1.33695 5.38993 1.53873 5.53555 1.53873 5.82681 1.53873 6.11631 1.33695 6.26193 1.10009 6.26193 1.05623 6.26193 1.00008 6.26193 0.954467 6.24088 1.28081 6.9462 2.16685 7.07428 2.55987 7.07428 2.95288 7.07428 3.69505 6.88655 3.69505 5.82505 3.69505 5.5145 3.64943 4.96182 3.26694 4.47406 2.93007 4.04245 2.54934 4.04245 2.17913 4.00736 2.12299 4.00736 1.86332 3.98104 1.81945 3.98104 1.7405 3.97051 1.69488 3.95998 1.69488 3.87401 1.69488 3.79506 1.70716 3.78453 1.93174 3.78453L2.48091 3.78453Z" transform="matrix(1.00295 0 0 -1 86.1463 99.9399)"/><path d="M0 0 0 4.64105" stroke="#000000" stroke-width="1.06081" stroke-linejoin="round" fill="none" transform="matrix(1.00295 0 0 1 129.953 82.8598)"/><path d="M1.18957 3.81787C1.18957 6.47423 2.44758 7.07428 3.17746 7.07428 3.41432 7.07428 3.9863 7.03393 4.21088 6.62512 4.03192 6.62512 3.69505 6.62512 3.69505 6.23386 3.69505 5.93208 3.94068 5.83032 4.09859 5.83032 4.20035 5.83032 4.50213 5.87418 4.50213 6.24614 4.50213 6.93743 3.94068 7.3322 3.16693 7.3322 1.82998 7.3322 0.426352 5.94787 0.426352 3.481 0.426352 0.443897 1.69488-0.22458 2.5932-0.22458 3.68277-0.22458 4.71619 0.749186 4.71619 2.25107 4.71619 3.65119 3.80734 4.67057 2.66163 4.67057 1.97561 4.67057 1.4703 4.22316 1.18957 3.43889L1.18957 3.81787ZM2.5932 0.0438634C1.21238 0.0438634 1.21238 2.10544 1.21238 2.51951 1.21238 3.3266 1.59487 4.49161 2.63882 4.49161 2.83006 4.49161 3.37923 4.49161 3.75119 3.71961 3.95297 3.28098 3.95297 2.82305 3.95297 2.26159 3.95297 1.65628 3.95297 1.21063 3.7161 0.761468 3.47047 0.300025 3.11079 0.0438634 2.5932 0.0438634Z" transform="matrix(1.00295 0 0 -1 126.962 99.9399)"/><path d="M0 0-4.64105 0" stroke="#000000" stroke-width="1.06081" stroke-linejoin="round" fill="none" transform="matrix(1.00295 0 0 1 40.1593 78.7544)"/><path d="M3.77225 7.23219C3.77225 7.4673 3.76172 7.4673 3.55995 7.4673L0.22458 2.20019 0.22458 1.90893 3.12132 1.90893 3.12132 0.801822C3.12132 0.393016 3.09851 0.280725 2.31248 0.280725L2.10018 0.280725 2.10018 0C2.45986 0 3.06517 0 3.44766 0 3.82839 0 4.43546 0 4.79514 0L4.79514 0.280725 4.58109 0.280725C3.79506 0.280725 3.77225 0.393016 3.77225 0.801822L3.77225 1.90893 4.91796 1.90893 4.91796 2.20019 3.77225 2.20019 3.77225 7.23219ZM3.15465 6.49704 3.15465 2.20019 0.449161 2.20019 3.15465 6.49704Z" transform="matrix(1.00295 0 0 -1 18.8836 82.6533)"/><path d="M3.95297 3.27045C3.95297 0.814104 2.93007 0.0543906 2.0879 0.0543906 1.82998 0.0543906 1.20186 0.0543906 0.943939 0.515833 1.23519 0.470215 1.44925 0.626369 1.44925 0.908849 1.44925 1.21414 1.20186 1.31415 1.04395 1.31415 0.943939 1.31415 0.640405 1.26853 0.640405 0.887794 0.640405 0.124572 1.30186-0.22458 2.1107-0.22458 3.40204-0.22458 4.71619 1.18256 4.71619 3.63715 4.71619 6.69706 3.45819 7.3322 2.60548 7.3322 1.49311 7.3322 0.426352 6.36545 0.426352 4.8741 0.426352 3.49328 1.33695 2.47038 2.48091 2.47038 3.42485 2.47038 3.84068 3.33888 3.95297 3.70558L3.95297 3.27045ZM2.50372 2.64935C2.20019 2.64935 1.77383 2.70549 1.42644 3.37221 1.18957 3.80558 1.18957 4.31791 1.18957 4.86181 1.18957 5.51976 1.18957 5.97419 1.50539 6.4637 1.66154 6.69706 1.95455 7.07428 2.60548 7.07428 3.93016 7.07428 3.93016 5.06183 3.93016 4.61793 3.93016 3.82839 3.57048 2.64935 2.50372 2.64935Z" transform="matrix(1.00295 0 0 -1 24.0487 82.6533)"/><path d="M0 0-4.64105 0" stroke="#000000" stroke-width="1.06081" stroke-linejoin="round" fill="none" transform="matrix(1.00295 0 0 1 40.1593 59.3073)"/><path d="M1.28081 6.47774C1.3931 6.43212 1.85279 6.28825 2.32476 6.28825 3.36871 6.28825 3.94068 6.86198 4.26703 7.19359 4.26703 7.2936 4.26703 7.35501 4.20035 7.35501 4.18807 7.35501 4.16526 7.35501 4.07578 7.30413 3.68277 7.1199 3.22308 6.97076 2.66163 6.97076 2.32476 6.97076 1.81945 7.01638 1.26853 7.26202 1.14571 7.31816 1.1229 7.31816 1.11237 7.31816 1.05623 7.31816 1.04395 7.30588 1.04395 7.08305L1.04395 3.86524C1.04395 3.66522 1.04395 3.60908 1.15624 3.60908 1.21238 3.60908 1.23519 3.63189 1.29134 3.70908 1.65102 4.21264 2.14404 4.42493 2.70549 4.42493 3.09851 4.42493 3.94068 4.1793 3.94068 2.26159 3.94068 1.90367 3.94068 1.25449 3.60381 0.738659 3.32309 0.278971 2.88621 0.0438634 2.40371 0.0438634 1.66154 0.0438634 0.908849 0.561451 0.707077 1.42819 0.752695 1.41591 0.842176 1.39485 0.887794 1.39485 1.03342 1.39485 1.31415 1.47381 1.31415 1.82121 1.31415 2.12299 1.10009 2.2458 0.887794 2.2458 0.628123 2.2458 0.459688 2.0879 0.459688 1.77383 0.459688 0.796558 1.23519-0.22458 2.42477-0.22458 3.58276-0.22458 4.68285 0.771995 4.68285 2.21773 4.68285 3.5617 3.80734 4.6039 2.71777 4.6039 2.14404 4.6039 1.66154 4.3916 1.28081 3.98981L1.28081 6.47774Z" transform="matrix(1.00295 0 0 -1 18.8836 63.2063)"/><path d="M3.05464 3.97227C3.76172 4.32844 4.48108 4.86532 4.48108 5.72504 4.48108 6.73917 3.49152 7.3322 2.58267 7.3322 1.56154 7.3322 0.663214 6.59529 0.663214 5.57942 0.663214 5.30045 0.729886 4.81971 1.16852 4.39511 1.28081 4.28457 1.75102 3.94946 2.05456 3.73716 1.54925 3.47924 0.370207 2.86691 0.370207 1.63873 0.370207 0.489515 1.4703-0.22458 2.55987-0.22458 3.76172-0.22458 4.77233 0.635141 4.77233 1.77208 4.77233 2.78971 4.08806 3.25817 3.6389 3.55995L3.05464 3.97227ZM1.58259 4.9513C1.49311 5.00744 1.04395 5.35308 1.04395 5.87944 1.04395 6.5602 1.75102 7.07428 2.55987 7.07428 3.44766 7.07428 4.09859 6.44967 4.09859 5.72329 4.09859 4.68285 2.93007 4.08982 2.87393 4.08982 2.8634 4.08982 2.85287 4.08982 2.76164 4.15825L1.58259 4.9513ZM3.64943 2.66514C3.81787 2.54232 4.35651 2.17562 4.35651 1.49311 4.35651 0.668477 3.52661 0.0438634 2.58267 0.0438634 1.56154 0.0438634 0.786031 0.768486 0.786031 1.64926 0.786031 2.53179 1.4703 3.26694 2.2458 3.61434L3.64943 2.66514Z" transform="matrix(1.00295 0 0 -1 24.0487 63.2063)"/><path d="M0 0-4.64105 0" stroke="#000000" stroke-width="1.06081" stroke-linejoin="round" fill="none" transform="matrix(1.00295 0 0 1 40.1593 37.6995)"/><path d="M1.18957 3.81787C1.18957 6.47423 2.44758 7.07428 3.17746 7.07428 3.41432 7.07428 3.9863 7.03393 4.21088 6.62512 4.03192 6.62512 3.69505 6.62512 3.69505 6.23386 3.69505 5.93208 3.94068 5.83032 4.09859 5.83032 4.20035 5.83032 4.50213 5.87418 4.50213 6.24614 4.50213 6.93743 3.94068 7.3322 3.16693 7.3322 1.82998 7.3322 0.426352 5.94787 0.426352 3.481 0.426352 0.443897 1.69488-0.22458 2.5932-0.22458 3.68277-0.22458 4.71619 0.749186 4.71619 2.25107 4.71619 3.65119 3.80734 4.67057 2.66163 4.67057 1.97561 4.67057 1.4703 4.22316 1.18957 3.43889L1.18957 3.81787ZM2.5932 0.0438634C1.21238 0.0438634 1.21238 2.10544 1.21238 2.51951 1.21238 3.3266 1.59487 4.49161 2.63882 4.49161 2.83006 4.49161 3.37923 4.49161 3.75119 3.71961 3.95297 3.28098 3.95297 2.82305 3.95297 2.26159 3.95297 1.65628 3.95297 1.21063 3.7161 0.761468 3.47047 0.300025 3.11079 0.0438634 2.5932 0.0438634Z" transform="matrix(1.00295 0 0 -1 18.8836 41.5984)"/><path d="M3.05464 3.97227C3.76172 4.32844 4.48108 4.86532 4.48108 5.72504 4.48108 6.73917 3.49152 7.3322 2.58267 7.3322 1.56154 7.3322 0.663214 6.59529 0.663214 5.57942 0.663214 5.30045 0.729886 4.81971 1.16852 4.39511 1.28081 4.28457 1.75102 3.94946 2.05456 3.73716 1.54925 3.47924 0.370207 2.86691 0.370207 1.63873 0.370207 0.489515 1.4703-0.22458 2.55987-0.22458 3.76172-0.22458 4.77233 0.635141 4.77233 1.77208 4.77233 2.78971 4.08806 3.25817 3.6389 3.55995L3.05464 3.97227ZM1.58259 4.9513C1.49311 5.00744 1.04395 5.35308 1.04395 5.87944 1.04395 6.5602 1.75102 7.07428 2.55987 7.07428 3.44766 7.07428 4.09859 6.44967 4.09859 5.72329 4.09859 4.68285 2.93007 4.08982 2.87393 4.08982 2.8634 4.08982 2.85287 4.08982 2.76164 4.15825L1.58259 4.9513ZM3.64943 2.66514C3.81787 2.54232 4.35651 2.17562 4.35651 1.49311 4.35651 0.668477 3.52661 0.0438634 2.58267 0.0438634 1.56154 0.0438634 0.786031 0.768486 0.786031 1.64926 0.786031 2.53179 1.4703 3.26694 2.2458 3.61434L3.64943 2.66514Z" transform="matrix(1.00295 0 0 -1 24.0487 41.5984)"/><g clip-path="url(#clip0)"><path d="" stroke="#B8860B" stroke-width="1.06081" stroke-linejoin="round" stroke-dasharray="3.925 1.6973" fill="none" transform="matrix(1.00295 0 0 1 9.30816 19.9412)"/></g><g><path d="M-1.90615 3.81229 0 1.90615 1.90615 3.81229 3.81229 1.90615 1.90615 0 3.81229-1.90615 1.90615-3.81229 0-1.90615-1.90615-3.81229-3.81229-1.90615-1.90615 0-3.81229 1.90615Z" stroke="#B8860B" stroke-width="1.06081" fill="none" transform="matrix(1.00295 0 0 1 48.5945 76.3846)"/></g><g clip-path="url(#clip1)"><path d="" stroke="#32CD32" stroke-width="1.06081" stroke-linejoin="round" stroke-dasharray="1.06081 1.75034" fill="none" transform="matrix(1.00295 0 0 1 9.30816 19.9412)"/></g><g><path d="M0 3.98495 3.98495 0 0-3.98495-3.98495 0Z" stroke="#32CD32" stroke-width="1.06081" fill="none" transform="matrix(1.00295 0 0 1 68.0499 69.8515)"/></g><g clip-path="url(#clip2)"><path d="" stroke="#8B4513" stroke-width="1.06081" stroke-linejoin="round" stroke-dasharray="6.7892 1.6973 1.06081 1.6973" fill="none" transform="matrix(1.00295 0 0 1 9.30816 19.9412)"/></g><g><path d="M0-3.48079-3.31043-1.07562-2.04596 2.81602 2.04596 2.81602 3.31043-1.07562Z" stroke="#8B4513" stroke-width="1.06081" fill="none" transform="matrix(1.00295 0 0 1 123.423 54.9512)"/></g><g clip-path="url(#clip3)"><path d="" stroke="#0000FF" stroke-width="1.06081" stroke-linecap="square" stroke-linejoin="round" fill="none" transform="matrix(1.00295 0 0 1 9.30816 19.9412)"/></g><g><path d="M0-4.30955-0.967553-1.33172-4.09862-1.33172-1.56554 0.508673-2.53309 3.4865 0 1.6461 2.53309 3.4865 1.56554 0.508673 4.09862-1.33172 0.967553-1.33172Z" stroke="#0000FF" stroke-width="1.06081" stroke-linejoin="bevel" fill="none" transform="matrix(1.00295 0 0 1 51.7237 41.5236)"/></g><path d="M30.7604 62.9187 30.7604 9.54731" stroke="#000000" stroke-width="1.06081" stroke-linecap="square" fill="none" transform="matrix(1.00295 0 0 1 9.30816 19.9412)"/><path d="M128.429 62.9187 128.429 9.54731" stroke="#000000" stroke-width="1.06081" stroke-linecap="square" fill="none" transform="matrix(1.00295 0 0 1 9.30816 19.9412)"/><path d="M30.7604 62.9187 128.429 62.9187" stroke="#000000" stroke-width="1.06081" stroke-linecap="square" fill="none" transform="matrix(1.00295 0 0 1 9.30816 19.9412)"/><path d="M30.7604 9.54731 128.429 9.54731" stroke="#000000" stroke-width="1.06081" stroke-linecap="square" fill="none" transform="matrix(1.00295 0 0 1 9.30816 19.9412)"/></g></g></g><text font-family="Times New Roman,Times New Roman_MSFontService,sans-serif" font-weight="400" font-size="12" transform="matrix(-1.83697e-16 -0.994126 1.00295 -1.83157e-16 14.5708 90)">Avg. Acc. (%)</text><g><g><g><path d="M0 91.7294 137.977 91.7294 137.977 0 0 0Z" fill="#FFFFFF" transform="matrix(1.00295 0 0 1 139.308 19.9412)"/><path d="M30.7604 62.9187 128.429 62.9187 128.429 9.54731 30.7604 9.54731Z" fill="#FFFFFF" transform="matrix(1.00295 0 0 1 139.308 19.9412)"/><path d="M0 0 0 4.64105" stroke="#000000" stroke-width="1.06081" stroke-linejoin="round" fill="none" transform="matrix(1.00295 0 0 1 177.996 82.8598)"/><path d="M4.71619 3.55293C4.71619 4.23895 4.70566 5.40396 4.23369 6.30053 3.81787 7.08656 3.15465 7.36553 2.57215 7.36553 2.03175 7.36553 1.34748 7.1199 0.92113 6.31106 0.47197 5.47064 0.426352 4.42844 0.426352 3.55293 0.426352 2.91428 0.438634 1.94051 0.786031 1.08606 1.26853-0.0684268 2.13351-0.22458 2.57215-0.22458 3.08798-0.22458 3.87401-0.0122817 4.3337 1.05272 4.67057 1.82822 4.71619 2.73532 4.71619 3.55293ZM2.57215-0.0456179C1.85279-0.0456179 1.42644 0.570224 1.26853 1.42468 1.14571 2.08439 1.14571 3.04938 1.14571 3.6775 1.14571 4.54073 1.14571 5.25834 1.29134 5.94261 1.50539 6.89356 2.13351 7.18657 2.57215 7.18657 3.03183 7.18657 3.62662 6.88304 3.84068 5.96542 3.9863 5.32677 3.99683 4.57407 3.99683 3.6775 3.99683 2.94762 3.99683 2.05105 3.86348 1.38959 3.62662 0.166681 2.96516-0.0456179 2.57215-0.0456179Z" transform="matrix(1.00295 0 0 -1 175.004 99.9399)"/><path d="M0 0 0 4.64105" stroke="#000000" stroke-width="1.06081" stroke-linejoin="round" fill="none" transform="matrix(1.00295 0 0 1 214.165 82.8598)"/><path d="M1.18957 3.81787C1.18957 6.47423 2.44758 7.07428 3.17746 7.07428 3.41432 7.07428 3.9863 7.03393 4.21088 6.62512 4.03192 6.62512 3.69505 6.62512 3.69505 6.23386 3.69505 5.93208 3.94068 5.83032 4.09859 5.83032 4.20035 5.83032 4.50213 5.87418 4.50213 6.24614 4.50213 6.93743 3.94068 7.3322 3.16693 7.3322 1.82998 7.3322 0.426352 5.94787 0.426352 3.481 0.426352 0.443897 1.69488-0.22458 2.5932-0.22458 3.68277-0.22458 4.71619 0.749186 4.71619 2.25107 4.71619 3.65119 3.80734 4.67057 2.66163 4.67057 1.97561 4.67057 1.4703 4.22316 1.18957 3.43889L1.18957 3.81787ZM2.5932 0.0438634C1.21238 0.0438634 1.21238 2.10544 1.21238 2.51951 1.21238 3.3266 1.59487 4.49161 2.63882 4.49161 2.83006 4.49161 3.37923 4.49161 3.75119 3.71961 3.95297 3.28098 3.95297 2.82305 3.95297 2.26159 3.95297 1.65628 3.95297 1.21063 3.7161 0.761468 3.47047 0.300025 3.11079 0.0438634 2.5932 0.0438634Z" transform="matrix(1.00295 0 0 -1 211.173 99.9399)"/><path d="M0 0 0 4.64105" stroke="#000000" stroke-width="1.06081" stroke-linejoin="round" fill="none" transform="matrix(1.00295 0 0 1 256.362 82.8598)"/><path d="M2.98622 7.1199C2.98622 7.35501 2.97569 7.35501 2.81778 7.35501 2.3809 6.87076 1.71769 6.7146 1.08957 6.7146 1.05623 6.7146 1.00008 6.7146 0.987803 6.68127 0.977275 6.65846 0.977275 6.63565 0.977275 6.40054 1.32467 6.40054 1.90893 6.46721 2.35809 6.73566L2.35809 0.80884C2.35809 0.41407 2.33528 0.280725 1.37029 0.280725L1.03342 0.280725 1.03342 0C1.57206 0 2.13351 0 2.67216 0 3.2108 0 3.77225 0 4.31264 0L4.31264 0.280725 3.97577 0.280725C3.00903 0.280725 2.98622 0.403543 2.98622 0.803577L2.98622 7.1199Z" transform="matrix(1.00295 0 0 -1 250.378 99.9399)"/><path d="M2.48091 3.78453C3.481 3.78453 3.91963 2.91604 3.91963 1.91244 3.91963 0.561451 3.20027 0.0438634 2.54934 0.0438634 1.95455 0.0438634 0.987803 0.34038 0.684268 1.21589 0.740413 1.19308 0.796558 1.19308 0.852704 1.19308 1.1229 1.19308 1.32467 1.37205 1.32467 1.6633 1.32467 1.98789 1.07728 2.13351 0.852704 2.13351 0.663214 2.13351 0.370207 2.04403 0.370207 1.6247 0.370207 0.587769 1.38082-0.22458 2.57215-0.22458 3.81787-0.22458 4.77233 0.75445 4.77233 1.90367 4.77233 2.99499 3.87401 3.78453 2.80725 3.90735 3.65996 4.08456 4.48108 4.8355 4.48108 5.84084 4.48108 6.70232 3.59329 7.3322 2.58267 7.3322 1.56154 7.3322 0.663214 6.71811 0.663214 5.84084 0.663214 5.4566 0.954467 5.38993 1.10009 5.38993 1.33695 5.38993 1.53873 5.53555 1.53873 5.82681 1.53873 6.11631 1.33695 6.26193 1.10009 6.26193 1.05623 6.26193 1.00008 6.26193 0.954467 6.24088 1.28081 6.9462 2.16685 7.07428 2.55987 7.07428 2.95288 7.07428 3.69505 6.88655 3.69505 5.82505 3.69505 5.5145 3.64943 4.96182 3.26694 4.47406 2.93007 4.04245 2.54934 4.04245 2.17913 4.00736 2.12299 4.00736 1.86332 3.98104 1.81945 3.98104 1.7405 3.97051 1.69488 3.95998 1.69488 3.87401 1.69488 3.79506 1.70716 3.78453 1.93174 3.78453L2.48091 3.78453Z" transform="matrix(1.00295 0 0 -1 255.543 99.9399)"/><path d="M0 0-4.64105 0" stroke="#000000" stroke-width="1.06081" stroke-linejoin="round" fill="none" transform="matrix(1.00295 0 0 1 170.159 78.7544)"/><path d="M1.28081 6.47774C1.3931 6.43212 1.85279 6.28825 2.32476 6.28825 3.36871 6.28825 3.94068 6.86198 4.26703 7.19359 4.26703 7.2936 4.26703 7.35501 4.20035 7.35501 4.18807 7.35501 4.16526 7.35501 4.07578 7.30413 3.68277 7.1199 3.22308 6.97076 2.66163 6.97076 2.32476 6.97076 1.81945 7.01638 1.26853 7.26202 1.14571 7.31816 1.1229 7.31816 1.11237 7.31816 1.05623 7.31816 1.04395 7.30588 1.04395 7.08305L1.04395 3.86524C1.04395 3.66522 1.04395 3.60908 1.15624 3.60908 1.21238 3.60908 1.23519 3.63189 1.29134 3.70908 1.65102 4.21264 2.14404 4.42493 2.70549 4.42493 3.09851 4.42493 3.94068 4.1793 3.94068 2.26159 3.94068 1.90367 3.94068 1.25449 3.60381 0.738659 3.32309 0.278971 2.88621 0.0438634 2.40371 0.0438634 1.66154 0.0438634 0.908849 0.561451 0.707077 1.42819 0.752695 1.41591 0.842176 1.39485 0.887794 1.39485 1.03342 1.39485 1.31415 1.47381 1.31415 1.82121 1.31415 2.12299 1.10009 2.2458 0.887794 2.2458 0.628123 2.2458 0.459688 2.0879 0.459688 1.77383 0.459688 0.796558 1.23519-0.22458 2.42477-0.22458 3.58276-0.22458 4.68285 0.771995 4.68285 2.21773 4.68285 3.5617 3.80734 4.6039 2.71777 4.6039 2.14404 4.6039 1.66154 4.3916 1.28081 3.98981L1.28081 6.47774Z" transform="matrix(1.00295 0 0 -1 148.884 82.6533)"/><path d="M5.06359 6.91462 5.06359 7.16025 2.42477 7.16025C1.11237 7.16025 1.08957 7.30763 1.04395 7.52344L0.842176 7.52344 0.515833 5.42853 0.719359 5.42853C0.752695 5.64083 0.831649 6.21105 0.964994 6.42335 1.03342 6.51283 1.86332 6.51283 2.05456 6.51283L4.52494 6.51283 3.27922 4.66882C2.44758 3.42836 1.8756 1.75278 1.8756 0.289498 1.8756 0.156154 1.8756-0.22458 2.27914-0.22458 2.68444-0.22458 2.68444 0.156154 2.68444 0.300025L2.68444 0.815858C2.68444 2.64584 2.9985 3.85296 3.51433 4.62495L5.06359 6.91462Z" transform="matrix(1.00295 0 0 -1 154.049 82.6533)"/><path d="M0 0-4.64105 0" stroke="#000000" stroke-width="1.06081" stroke-linejoin="round" fill="none" transform="matrix(1.00295 0 0 1 170.159 59.5954)"/><path d="M1.18957 3.81787C1.18957 6.47423 2.44758 7.07428 3.17746 7.07428 3.41432 7.07428 3.9863 7.03393 4.21088 6.62512 4.03192 6.62512 3.69505 6.62512 3.69505 6.23386 3.69505 5.93208 3.94068 5.83032 4.09859 5.83032 4.20035 5.83032 4.50213 5.87418 4.50213 6.24614 4.50213 6.93743 3.94068 7.3322 3.16693 7.3322 1.82998 7.3322 0.426352 5.94787 0.426352 3.481 0.426352 0.443897 1.69488-0.22458 2.5932-0.22458 3.68277-0.22458 4.71619 0.749186 4.71619 2.25107 4.71619 3.65119 3.80734 4.67057 2.66163 4.67057 1.97561 4.67057 1.4703 4.22316 1.18957 3.43889L1.18957 3.81787ZM2.5932 0.0438634C1.21238 0.0438634 1.21238 2.10544 1.21238 2.51951 1.21238 3.3266 1.59487 4.49161 2.63882 4.49161 2.83006 4.49161 3.37923 4.49161 3.75119 3.71961 3.95297 3.28098 3.95297 2.82305 3.95297 2.26159 3.95297 1.65628 3.95297 1.21063 3.7161 0.761468 3.47047 0.300025 3.11079 0.0438634 2.5932 0.0438634Z" transform="matrix(1.00295 0 0 -1 148.884 63.4944)"/><path d="M3.77225 7.23219C3.77225 7.4673 3.76172 7.4673 3.55995 7.4673L0.22458 2.20019 0.22458 1.90893 3.12132 1.90893 3.12132 0.801822C3.12132 0.393016 3.09851 0.280725 2.31248 0.280725L2.10018 0.280725 2.10018 0C2.45986 0 3.06517 0 3.44766 0 3.82839 0 4.43546 0 4.79514 0L4.79514 0.280725 4.58109 0.280725C3.79506 0.280725 3.77225 0.393016 3.77225 0.801822L3.77225 1.90893 4.91796 1.90893 4.91796 2.20019 3.77225 2.20019 3.77225 7.23219ZM3.15465 6.49704 3.15465 2.20019 0.449161 2.20019 3.15465 6.49704Z" transform="matrix(1.00295 0 0 -1 154.049 63.4944)"/><path d="M0 0-4.64105 0" stroke="#000000" stroke-width="1.06081" stroke-linejoin="round" fill="none" transform="matrix(1.00295 0 0 1 170.159 37.6995)"/><path d="M5.06359 6.91462 5.06359 7.16025 2.42477 7.16025C1.11237 7.16025 1.08957 7.30763 1.04395 7.52344L0.842176 7.52344 0.515833 5.42853 0.719359 5.42853C0.752695 5.64083 0.831649 6.21105 0.964994 6.42335 1.03342 6.51283 1.86332 6.51283 2.05456 6.51283L4.52494 6.51283 3.27922 4.66882C2.44758 3.42836 1.8756 1.75278 1.8756 0.289498 1.8756 0.156154 1.8756-0.22458 2.27914-0.22458 2.68444-0.22458 2.68444 0.156154 2.68444 0.300025L2.68444 0.815858C2.68444 2.64584 2.9985 3.85296 3.51433 4.62495L5.06359 6.91462Z" transform="matrix(1.00295 0 0 -1 148.884 41.5984)"/><path d="M4.68285 1.73523 4.48108 1.73523C4.36879 0.94043 4.27755 0.805331 4.23369 0.736904 4.17755 0.647423 3.36871 0.647423 3.2108 0.647423L1.05623 0.647423C1.45977 1.08606 2.2458 1.88086 3.20027 2.80199 3.88454 3.45117 4.68285 4.21439 4.68285 5.32501 4.68285 6.64968 3.62662 7.41115 2.44758 7.41115 1.21238 7.41115 0.459688 6.32334 0.459688 5.31624 0.459688 4.8776 0.786031 4.82146 0.92113 4.82146 1.03342 4.82146 1.37029 4.88989 1.37029 5.28115 1.37029 5.62679 1.07728 5.7268 0.92113 5.7268 0.852704 5.7268 0.786031 5.71627 0.740413 5.69346 0.954467 6.64968 1.6054 7.1199 2.29142 7.1199 3.26694 7.1199 3.90735 6.34615 3.90735 5.32501 3.90735 4.34949 3.33537 3.50907 2.69496 2.77918L0.459688 0.256162 0.459688 0 4.41265 0 4.68285 1.73523Z" transform="matrix(1.00295 0 0 -1 154.049 41.5984)"/><g clip-path="url(#clip4)"><path d="" stroke="#B8860B" stroke-width="1.06081" stroke-linejoin="round" stroke-dasharray="3.925 1.6973" fill="none" transform="matrix(1.00295 0 0 1 139.308 19.9412)"/></g><g><path d="M-1.90615 3.81229 0 1.90615 1.90615 3.81229 3.81229 1.90615 1.90615 0 3.81229-1.90615 1.90615-3.81229 0-1.90615-1.90615-3.81229-3.81229-1.90615-1.90615 0-3.81229 1.90615Z" stroke="#B8860B" stroke-width="1.06081" fill="none" transform="matrix(1.00295 0 0 1 178.177 75.4722)"/></g><g clip-path="url(#clip5)"><path d="" stroke="#32CD32" stroke-width="1.06081" stroke-linejoin="round" stroke-dasharray="1.06081 1.75034" fill="none" transform="matrix(1.00295 0 0 1 139.308 19.9412)"/></g><g><path d="M0 3.98495 3.98495 0 0-3.98495-3.98495 0Z" stroke="#32CD32" stroke-width="1.06081" fill="none" transform="matrix(1.00295 0 0 1 198.612 74.0725)"/></g><g clip-path="url(#clip6)"><path d="" stroke="#8B4513" stroke-width="1.06081" stroke-linejoin="round" stroke-dasharray="6.7892 1.6973 1.06081 1.6973" fill="none" transform="matrix(1.00295 0 0 1 139.308 19.9412)"/></g><g><path d="M0-3.48079-3.31043-1.07562-2.04596 2.81602 2.04596 2.81602 3.31043-1.07562Z" stroke="#8B4513" stroke-width="1.06081" fill="none" transform="matrix(1.00295 0 0 1 258.712 43.4715)"/></g><g clip-path="url(#clip7)"><path d="" stroke="#0000FF" stroke-width="1.06081" stroke-linecap="square" stroke-linejoin="round" fill="none" transform="matrix(1.00295 0 0 1 139.308 19.9412)"/></g><g><path d="M0-4.30955-0.967553-1.33172-4.09862-1.33172-1.56554 0.508673-2.53309 3.4865 0 1.6461 2.53309 3.4865 1.56554 0.508673 4.09862-1.33172 0.967553-1.33172Z" stroke="#0000FF" stroke-width="1.06081" stroke-linejoin="bevel" fill="none" transform="matrix(1.00295 0 0 1 181.311 41.9147)"/></g><path d="M30.7604 62.9187 30.7604 9.54731" stroke="#000000" stroke-width="1.06081" stroke-linecap="square" fill="none" transform="matrix(1.00295 0 0 1 139.308 19.9412)"/><path d="M128.429 62.9187 128.429 9.54731" stroke="#000000" stroke-width="1.06081" stroke-linecap="square" fill="none" transform="matrix(1.00295 0 0 1 139.308 19.9412)"/><path d="M30.7604 62.9187 128.429 62.9187" stroke="#000000" stroke-width="1.06081" stroke-linecap="square" fill="none" transform="matrix(1.00295 0 0 1 139.308 19.9412)"/><path d="M30.7604 9.54731 128.429 9.54731" stroke="#000000" stroke-width="1.06081" stroke-linecap="square" fill="none" transform="matrix(1.00295 0 0 1 139.308 19.9412)"/></g></g></g><g><g><g><path d="M0 91.7294 137.977 91.7294 137.977 0 0 0Z" fill="#FFFFFF" transform="matrix(1.00295 0 0 1 269.308 19.9412)"/><path d="M30.7604 62.9187 128.429 62.9187 128.429 9.54731 30.7604 9.54731Z" fill="#FFFFFF" transform="matrix(1.00295 0 0 1 269.308 19.9412)"/><path d="M0 0 0 4.64105" stroke="#000000" stroke-width="1.06081" stroke-linejoin="round" fill="none" transform="matrix(1.00295 0 0 1 305.921 82.8598)"/><path d="M4.71619 3.55293C4.71619 4.23895 4.70566 5.40396 4.23369 6.30053 3.81787 7.08656 3.15465 7.36553 2.57215 7.36553 2.03175 7.36553 1.34748 7.1199 0.92113 6.31106 0.47197 5.47064 0.426352 4.42844 0.426352 3.55293 0.426352 2.91428 0.438634 1.94051 0.786031 1.08606 1.26853-0.0684268 2.13351-0.22458 2.57215-0.22458 3.08798-0.22458 3.87401-0.0122817 4.3337 1.05272 4.67057 1.82822 4.71619 2.73532 4.71619 3.55293ZM2.57215-0.0456179C1.85279-0.0456179 1.42644 0.570224 1.26853 1.42468 1.14571 2.08439 1.14571 3.04938 1.14571 3.6775 1.14571 4.54073 1.14571 5.25834 1.29134 5.94261 1.50539 6.89356 2.13351 7.18657 2.57215 7.18657 3.03183 7.18657 3.62662 6.88304 3.84068 5.96542 3.9863 5.32677 3.99683 4.57407 3.99683 3.6775 3.99683 2.94762 3.99683 2.05105 3.86348 1.38959 3.62662 0.166681 2.96516-0.0456179 2.57215-0.0456179Z" transform="matrix(1.00295 0 0 -1 302.93 99.9399)"/><path d="M0 0 0 4.64105" stroke="#000000" stroke-width="1.06081" stroke-linejoin="round" fill="none" transform="matrix(1.00295 0 0 1 334.732 82.8598)"/><path d="M4.68285 1.73523 4.48108 1.73523C4.36879 0.94043 4.27755 0.805331 4.23369 0.736904 4.17755 0.647423 3.36871 0.647423 3.2108 0.647423L1.05623 0.647423C1.45977 1.08606 2.2458 1.88086 3.20027 2.80199 3.88454 3.45117 4.68285 4.21439 4.68285 5.32501 4.68285 6.64968 3.62662 7.41115 2.44758 7.41115 1.21238 7.41115 0.459688 6.32334 0.459688 5.31624 0.459688 4.8776 0.786031 4.82146 0.92113 4.82146 1.03342 4.82146 1.37029 4.88989 1.37029 5.28115 1.37029 5.62679 1.07728 5.7268 0.92113 5.7268 0.852704 5.7268 0.786031 5.71627 0.740413 5.69346 0.954467 6.64968 1.6054 7.1199 2.29142 7.1199 3.26694 7.1199 3.90735 6.34615 3.90735 5.32501 3.90735 4.34949 3.33537 3.50907 2.69496 2.77918L0.459688 0.256162 0.459688 0 4.41265 0 4.68285 1.73523Z" transform="matrix(1.00295 0 0 -1 331.741 99.9399)"/><path d="M0 0 0 4.64105" stroke="#000000" stroke-width="1.06081" stroke-linejoin="round" fill="none" transform="matrix(1.00295 0 0 1 363.543 82.8598)"/><path d="M3.77225 7.23219C3.77225 7.4673 3.76172 7.4673 3.55995 7.4673L0.22458 2.20019 0.22458 1.90893 3.12132 1.90893 3.12132 0.801822C3.12132 0.393016 3.09851 0.280725 2.31248 0.280725L2.10018 0.280725 2.10018 0C2.45986 0 3.06517 0 3.44766 0 3.82839 0 4.43546 0 4.79514 0L4.79514 0.280725 4.58109 0.280725C3.79506 0.280725 3.77225 0.393016 3.77225 0.801822L3.77225 1.90893 4.91796 1.90893 4.91796 2.20019 3.77225 2.20019 3.77225 7.23219ZM3.15465 6.49704 3.15465 2.20019 0.449161 2.20019 3.15465 6.49704Z" transform="matrix(1.00295 0 0 -1 360.552 99.9399)"/><path d="M0 0 0 4.64105" stroke="#000000" stroke-width="1.06081" stroke-linejoin="round" fill="none" transform="matrix(1.00295 0 0 1 392.354 82.8598)"/><path d="M1.18957 3.81787C1.18957 6.47423 2.44758 7.07428 3.17746 7.07428 3.41432 7.07428 3.9863 7.03393 4.21088 6.62512 4.03192 6.62512 3.69505 6.62512 3.69505 6.23386 3.69505 5.93208 3.94068 5.83032 4.09859 5.83032 4.20035 5.83032 4.50213 5.87418 4.50213 6.24614 4.50213 6.93743 3.94068 7.3322 3.16693 7.3322 1.82998 7.3322 0.426352 5.94787 0.426352 3.481 0.426352 0.443897 1.69488-0.22458 2.5932-0.22458 3.68277-0.22458 4.71619 0.749186 4.71619 2.25107 4.71619 3.65119 3.80734 4.67057 2.66163 4.67057 1.97561 4.67057 1.4703 4.22316 1.18957 3.43889L1.18957 3.81787ZM2.5932 0.0438634C1.21238 0.0438634 1.21238 2.10544 1.21238 2.51951 1.21238 3.3266 1.59487 4.49161 2.63882 4.49161 2.83006 4.49161 3.37923 4.49161 3.75119 3.71961 3.95297 3.28098 3.95297 2.82305 3.95297 2.26159 3.95297 1.65628 3.95297 1.21063 3.7161 0.761468 3.47047 0.300025 3.11079 0.0438634 2.5932 0.0438634Z" transform="matrix(1.00295 0 0 -1 389.363 99.9399)"/><path d="M0 0-4.64105 0" stroke="#000000" stroke-width="1.06081" stroke-linejoin="round" fill="none" transform="matrix(1.00295 0 0 1 300.159 78.7544)"/><path d="M3.77225 7.23219C3.77225 7.4673 3.76172 7.4673 3.55995 7.4673L0.22458 2.20019 0.22458 1.90893 3.12132 1.90893 3.12132 0.801822C3.12132 0.393016 3.09851 0.280725 2.31248 0.280725L2.10018 0.280725 2.10018 0C2.45986 0 3.06517 0 3.44766 0 3.82839 0 4.43546 0 4.79514 0L4.79514 0.280725 4.58109 0.280725C3.79506 0.280725 3.77225 0.393016 3.77225 0.801822L3.77225 1.90893 4.91796 1.90893 4.91796 2.20019 3.77225 2.20019 3.77225 7.23219ZM3.15465 6.49704 3.15465 2.20019 0.449161 2.20019 3.15465 6.49704Z" transform="matrix(1.00295 0 0 -1 278.884 82.6533)"/><path d="M4.71619 3.55293C4.71619 4.23895 4.70566 5.40396 4.23369 6.30053 3.81787 7.08656 3.15465 7.36553 2.57215 7.36553 2.03175 7.36553 1.34748 7.1199 0.92113 6.31106 0.47197 5.47064 0.426352 4.42844 0.426352 3.55293 0.426352 2.91428 0.438634 1.94051 0.786031 1.08606 1.26853-0.0684268 2.13351-0.22458 2.57215-0.22458 3.08798-0.22458 3.87401-0.0122817 4.3337 1.05272 4.67057 1.82822 4.71619 2.73532 4.71619 3.55293ZM2.57215-0.0456179C1.85279-0.0456179 1.42644 0.570224 1.26853 1.42468 1.14571 2.08439 1.14571 3.04938 1.14571 3.6775 1.14571 4.54073 1.14571 5.25834 1.29134 5.94261 1.50539 6.89356 2.13351 7.18657 2.57215 7.18657 3.03183 7.18657 3.62662 6.88304 3.84068 5.96542 3.9863 5.32677 3.99683 4.57407 3.99683 3.6775 3.99683 2.94762 3.99683 2.05105 3.86348 1.38959 3.62662 0.166681 2.96516-0.0456179 2.57215-0.0456179Z" transform="matrix(1.00295 0 0 -1 284.049 82.6533)"/><path d="M0 0-4.64105 0" stroke="#000000" stroke-width="1.06081" stroke-linejoin="round" fill="none" transform="matrix(1.00295 0 0 1 300.159 58.2269)"/><path d="M1.28081 6.47774C1.3931 6.43212 1.85279 6.28825 2.32476 6.28825 3.36871 6.28825 3.94068 6.86198 4.26703 7.19359 4.26703 7.2936 4.26703 7.35501 4.20035 7.35501 4.18807 7.35501 4.16526 7.35501 4.07578 7.30413 3.68277 7.1199 3.22308 6.97076 2.66163 6.97076 2.32476 6.97076 1.81945 7.01638 1.26853 7.26202 1.14571 7.31816 1.1229 7.31816 1.11237 7.31816 1.05623 7.31816 1.04395 7.30588 1.04395 7.08305L1.04395 3.86524C1.04395 3.66522 1.04395 3.60908 1.15624 3.60908 1.21238 3.60908 1.23519 3.63189 1.29134 3.70908 1.65102 4.21264 2.14404 4.42493 2.70549 4.42493 3.09851 4.42493 3.94068 4.1793 3.94068 2.26159 3.94068 1.90367 3.94068 1.25449 3.60381 0.738659 3.32309 0.278971 2.88621 0.0438634 2.40371 0.0438634 1.66154 0.0438634 0.908849 0.561451 0.707077 1.42819 0.752695 1.41591 0.842176 1.39485 0.887794 1.39485 1.03342 1.39485 1.31415 1.47381 1.31415 1.82121 1.31415 2.12299 1.10009 2.2458 0.887794 2.2458 0.628123 2.2458 0.459688 2.0879 0.459688 1.77383 0.459688 0.796558 1.23519-0.22458 2.42477-0.22458 3.58276-0.22458 4.68285 0.771995 4.68285 2.21773 4.68285 3.5617 3.80734 4.6039 2.71777 4.6039 2.14404 4.6039 1.66154 4.3916 1.28081 3.98981L1.28081 6.47774Z" transform="matrix(1.00295 0 0 -1 278.884 62.1259)"/><path d="M1.18957 3.81787C1.18957 6.47423 2.44758 7.07428 3.17746 7.07428 3.41432 7.07428 3.9863 7.03393 4.21088 6.62512 4.03192 6.62512 3.69505 6.62512 3.69505 6.23386 3.69505 5.93208 3.94068 5.83032 4.09859 5.83032 4.20035 5.83032 4.50213 5.87418 4.50213 6.24614 4.50213 6.93743 3.94068 7.3322 3.16693 7.3322 1.82998 7.3322 0.426352 5.94787 0.426352 3.481 0.426352 0.443897 1.69488-0.22458 2.5932-0.22458 3.68277-0.22458 4.71619 0.749186 4.71619 2.25107 4.71619 3.65119 3.80734 4.67057 2.66163 4.67057 1.97561 4.67057 1.4703 4.22316 1.18957 3.43889L1.18957 3.81787ZM2.5932 0.0438634C1.21238 0.0438634 1.21238 2.10544 1.21238 2.51951 1.21238 3.3266 1.59487 4.49161 2.63882 4.49161 2.83006 4.49161 3.37923 4.49161 3.75119 3.71961 3.95297 3.28098 3.95297 2.82305 3.95297 2.26159 3.95297 1.65628 3.95297 1.21063 3.7161 0.761468 3.47047 0.300025 3.11079 0.0438634 2.5932 0.0438634Z" transform="matrix(1.00295 0 0 -1 284.049 62.1259)"/><path d="M0 0-4.64105 0" stroke="#000000" stroke-width="1.06081" stroke-linejoin="round" fill="none" transform="matrix(1.00295 0 0 1 300.159 37.6995)"/><path d="M5.06359 6.91462 5.06359 7.16025 2.42477 7.16025C1.11237 7.16025 1.08957 7.30763 1.04395 7.52344L0.842176 7.52344 0.515833 5.42853 0.719359 5.42853C0.752695 5.64083 0.831649 6.21105 0.964994 6.42335 1.03342 6.51283 1.86332 6.51283 2.05456 6.51283L4.52494 6.51283 3.27922 4.66882C2.44758 3.42836 1.8756 1.75278 1.8756 0.289498 1.8756 0.156154 1.8756-0.22458 2.27914-0.22458 2.68444-0.22458 2.68444 0.156154 2.68444 0.300025L2.68444 0.815858C2.68444 2.64584 2.9985 3.85296 3.51433 4.62495L5.06359 6.91462Z" transform="matrix(1.00295 0 0 -1 278.884 41.5984)"/><path d="M4.68285 1.73523 4.48108 1.73523C4.36879 0.94043 4.27755 0.805331 4.23369 0.736904 4.17755 0.647423 3.36871 0.647423 3.2108 0.647423L1.05623 0.647423C1.45977 1.08606 2.2458 1.88086 3.20027 2.80199 3.88454 3.45117 4.68285 4.21439 4.68285 5.32501 4.68285 6.64968 3.62662 7.41115 2.44758 7.41115 1.21238 7.41115 0.459688 6.32334 0.459688 5.31624 0.459688 4.8776 0.786031 4.82146 0.92113 4.82146 1.03342 4.82146 1.37029 4.88989 1.37029 5.28115 1.37029 5.62679 1.07728 5.7268 0.92113 5.7268 0.852704 5.7268 0.786031 5.71627 0.740413 5.69346 0.954467 6.64968 1.6054 7.1199 2.29142 7.1199 3.26694 7.1199 3.90735 6.34615 3.90735 5.32501 3.90735 4.34949 3.33537 3.50907 2.69496 2.77918L0.459688 0.256162 0.459688 0 4.41265 0 4.68285 1.73523Z" transform="matrix(1.00295 0 0 -1 284.049 41.5984)"/><g clip-path="url(#clip8)"><path d="" stroke="#B8860B" stroke-width="1.06081" stroke-linejoin="round" stroke-dasharray="3.925 1.6973" fill="none" transform="matrix(1.00295 0 0 1 269.308 19.9412)"/></g><g><path d="M-1.90615 3.81229 0 1.90615 1.90615 3.81229 3.81229 1.90615 1.90615 0 3.81229-1.90615 1.90615-3.81229 0-1.90615-1.90615-3.81229-3.81229-1.90615-1.90615 0-3.81229 1.90615Z" stroke="#B8860B" stroke-width="1.06081" fill="none" transform="matrix(1.00295 0 0 1 306.21 74.9513)"/></g><g clip-path="url(#clip9)"><path d="" stroke="#32CD32" stroke-width="1.06081" stroke-linejoin="round" stroke-dasharray="1.06081 1.75034" fill="none" transform="matrix(1.00295 0 0 1 269.308 19.9412)"/></g><g><path d="M0 3.98495 3.98495 0 0-3.98495-3.98495 0Z" stroke="#32CD32" stroke-width="1.06081" fill="none" transform="matrix(1.00295 0 0 1 329.114 63.9883)"/></g><g clip-path="url(#clip10)"><path d="" stroke="#8B4513" stroke-width="1.06081" stroke-linejoin="round" stroke-dasharray="6.7892 1.6973 1.06081 1.6973" fill="none" transform="matrix(1.00295 0 0 1 269.308 19.9412)"/></g><g><path d="M0-3.48079-3.31043-1.07562-2.04596 2.81602 2.04596 2.81602 3.31043-1.07562Z" stroke="#8B4513" stroke-width="1.06081" fill="none" transform="matrix(1.00295 0 0 1 384.863 48.4435)"/></g><g clip-path="url(#clip11)"><path d="" stroke="#0000FF" stroke-width="1.06081" stroke-linecap="square" stroke-linejoin="round" fill="none" transform="matrix(1.00295 0 0 1 269.308 19.9412)"/></g><g><path d="M0-4.30955-0.967553-1.33172-4.09862-1.33172-1.56554 0.508673-2.53309 3.4865 0 1.6461 2.53309 3.4865 1.56554 0.508673 4.09862-1.33172 0.967553-1.33172Z" stroke="#0000FF" stroke-width="1.06081" stroke-linejoin="bevel" fill="none" transform="matrix(1.00295 0 0 1 310.099 40.5017)"/></g><path d="M30.7604 62.9187 30.7604 9.54731" stroke="#000000" stroke-width="1.06081" stroke-linecap="square" fill="none" transform="matrix(1.00295 0 0 1 269.308 19.9412)"/><path d="M128.429 62.9187 128.429 9.54731" stroke="#000000" stroke-width="1.06081" stroke-linecap="square" fill="none" transform="matrix(1.00295 0 0 1 269.308 19.9412)"/><path d="M30.7604 62.9187 128.429 62.9187" stroke="#000000" stroke-width="1.06081" stroke-linecap="square" fill="none" transform="matrix(1.00295 0 0 1 269.308 19.9412)"/><path d="M30.7604 9.54731 128.429 9.54731" stroke="#000000" stroke-width="1.06081" stroke-linecap="square" fill="none" transform="matrix(1.00295 0 0 1 269.308 19.9412)"/></g></g></g><g><g><g><path d="M0 91.7294 138.786 91.7294 138.786 0 0 0Z" fill="#FFFFFF" transform="matrix(1.00295 0 0 1 399.402 19.9412)"/><path d="M30.7604 62.9187 128.429 62.9187 128.429 9.54731 30.7604 9.54731Z" fill="#FFFFFF" transform="matrix(1.00295 0 0 1 399.402 19.9412)"/><path d="M0 0 0 4.64105" stroke="#000000" stroke-width="1.06081" stroke-linejoin="round" fill="none" transform="matrix(1.00295 0 0 1 438.417 82.8598)"/><path d="M4.71619 3.55293C4.71619 4.23895 4.70566 5.40396 4.23369 6.30053 3.81787 7.08656 3.15465 7.36553 2.57215 7.36553 2.03175 7.36553 1.34748 7.1199 0.92113 6.31106 0.47197 5.47064 0.426352 4.42844 0.426352 3.55293 0.426352 2.91428 0.438634 1.94051 0.786031 1.08606 1.26853-0.0684268 2.13351-0.22458 2.57215-0.22458 3.08798-0.22458 3.87401-0.0122817 4.3337 1.05272 4.67057 1.82822 4.71619 2.73532 4.71619 3.55293ZM2.57215-0.0456179C1.85279-0.0456179 1.42644 0.570224 1.26853 1.42468 1.14571 2.08439 1.14571 3.04938 1.14571 3.6775 1.14571 4.54073 1.14571 5.25834 1.29134 5.94261 1.50539 6.89356 2.13351 7.18657 2.57215 7.18657 3.03183 7.18657 3.62662 6.88304 3.84068 5.96542 3.9863 5.32677 3.99683 4.57407 3.99683 3.6775 3.99683 2.94762 3.99683 2.05105 3.86348 1.38959 3.62662 0.166681 2.96516-0.0456179 2.57215-0.0456179Z" transform="matrix(1.00295 0 0 -1 435.425 99.9399)"/><path d="M0 0 0 4.64105" stroke="#000000" stroke-width="1.06081" stroke-linejoin="round" fill="none" transform="matrix(1.00295 0 0 1 479.067 82.8598)"/><path d="M2.98622 7.1199C2.98622 7.35501 2.97569 7.35501 2.81778 7.35501 2.3809 6.87076 1.71769 6.7146 1.08957 6.7146 1.05623 6.7146 1.00008 6.7146 0.987803 6.68127 0.977275 6.65846 0.977275 6.63565 0.977275 6.40054 1.32467 6.40054 1.90893 6.46721 2.35809 6.73566L2.35809 0.80884C2.35809 0.41407 2.33528 0.280725 1.37029 0.280725L1.03342 0.280725 1.03342 0C1.57206 0 2.13351 0 2.67216 0 3.2108 0 3.77225 0 4.31264 0L4.31264 0.280725 3.97577 0.280725C3.00903 0.280725 2.98622 0.403543 2.98622 0.803577L2.98622 7.1199Z" transform="matrix(1.00295 0 0 -1 470.092 99.9399)"/><path d="M4.68285 1.73523 4.48108 1.73523C4.36879 0.94043 4.27755 0.805331 4.23369 0.736904 4.17755 0.647423 3.36871 0.647423 3.2108 0.647423L1.05623 0.647423C1.45977 1.08606 2.2458 1.88086 3.20027 2.80199 3.88454 3.45117 4.68285 4.21439 4.68285 5.32501 4.68285 6.64968 3.62662 7.41115 2.44758 7.41115 1.21238 7.41115 0.459688 6.32334 0.459688 5.31624 0.459688 4.8776 0.786031 4.82146 0.92113 4.82146 1.03342 4.82146 1.37029 4.88989 1.37029 5.28115 1.37029 5.62679 1.07728 5.7268 0.92113 5.7268 0.852704 5.7268 0.786031 5.71627 0.740413 5.69346 0.954467 6.64968 1.6054 7.1199 2.29142 7.1199 3.26694 7.1199 3.90735 6.34615 3.90735 5.32501 3.90735 4.34949 3.33537 3.50907 2.69496 2.77918L0.459688 0.256162 0.459688 0 4.41265 0 4.68285 1.73523Z" transform="matrix(1.00295 0 0 -1 475.257 99.9399)"/><path d="M2.48091 3.78453C3.481 3.78453 3.91963 2.91604 3.91963 1.91244 3.91963 0.561451 3.20027 0.0438634 2.54934 0.0438634 1.95455 0.0438634 0.987803 0.34038 0.684268 1.21589 0.740413 1.19308 0.796558 1.19308 0.852704 1.19308 1.1229 1.19308 1.32467 1.37205 1.32467 1.6633 1.32467 1.98789 1.07728 2.13351 0.852704 2.13351 0.663214 2.13351 0.370207 2.04403 0.370207 1.6247 0.370207 0.587769 1.38082-0.22458 2.57215-0.22458 3.81787-0.22458 4.77233 0.75445 4.77233 1.90367 4.77233 2.99499 3.87401 3.78453 2.80725 3.90735 3.65996 4.08456 4.48108 4.8355 4.48108 5.84084 4.48108 6.70232 3.59329 7.3322 2.58267 7.3322 1.56154 7.3322 0.663214 6.71811 0.663214 5.84084 0.663214 5.4566 0.954467 5.38993 1.10009 5.38993 1.33695 5.38993 1.53873 5.53555 1.53873 5.82681 1.53873 6.11631 1.33695 6.26193 1.10009 6.26193 1.05623 6.26193 1.00008 6.26193 0.954467 6.24088 1.28081 6.9462 2.16685 7.07428 2.55987 7.07428 2.95288 7.07428 3.69505 6.88655 3.69505 5.82505 3.69505 5.5145 3.64943 4.96182 3.26694 4.47406 2.93007 4.04245 2.54934 4.04245 2.17913 4.00736 2.12299 4.00736 1.86332 3.98104 1.81945 3.98104 1.7405 3.97051 1.69488 3.95998 1.69488 3.87401 1.69488 3.79506 1.70716 3.78453 1.93174 3.78453L2.48091 3.78453Z" transform="matrix(1.00295 0 0 -1 480.422 99.9399)"/><path d="M0 0 0 4.64105" stroke="#000000" stroke-width="1.06081" stroke-linejoin="round" fill="none" transform="matrix(1.00295 0 0 1 520.047 82.8598)"/><path d="M4.68285 1.73523 4.48108 1.73523C4.36879 0.94043 4.27755 0.805331 4.23369 0.736904 4.17755 0.647423 3.36871 0.647423 3.2108 0.647423L1.05623 0.647423C1.45977 1.08606 2.2458 1.88086 3.20027 2.80199 3.88454 3.45117 4.68285 4.21439 4.68285 5.32501 4.68285 6.64968 3.62662 7.41115 2.44758 7.41115 1.21238 7.41115 0.459688 6.32334 0.459688 5.31624 0.459688 4.8776 0.786031 4.82146 0.92113 4.82146 1.03342 4.82146 1.37029 4.88989 1.37029 5.28115 1.37029 5.62679 1.07728 5.7268 0.92113 5.7268 0.852704 5.7268 0.786031 5.71627 0.740413 5.69346 0.954467 6.64968 1.6054 7.1199 2.29142 7.1199 3.26694 7.1199 3.90735 6.34615 3.90735 5.32501 3.90735 4.34949 3.33537 3.50907 2.69496 2.77918L0.459688 0.256162 0.459688 0 4.41265 0 4.68285 1.73523Z" transform="matrix(1.00295 0 0 -1 511.073 99.9399)"/><path d="M3.77225 7.23219C3.77225 7.4673 3.76172 7.4673 3.55995 7.4673L0.22458 2.20019 0.22458 1.90893 3.12132 1.90893 3.12132 0.801822C3.12132 0.393016 3.09851 0.280725 2.31248 0.280725L2.10018 0.280725 2.10018 0C2.45986 0 3.06517 0 3.44766 0 3.82839 0 4.43546 0 4.79514 0L4.79514 0.280725 4.58109 0.280725C3.79506 0.280725 3.77225 0.393016 3.77225 0.801822L3.77225 1.90893 4.91796 1.90893 4.91796 2.20019 3.77225 2.20019 3.77225 7.23219ZM3.15465 6.49704 3.15465 2.20019 0.449161 2.20019 3.15465 6.49704Z" transform="matrix(1.00295 0 0 -1 516.238 99.9399)"/><path d="M5.06359 6.91462 5.06359 7.16025 2.42477 7.16025C1.11237 7.16025 1.08957 7.30763 1.04395 7.52344L0.842176 7.52344 0.515833 5.42853 0.719359 5.42853C0.752695 5.64083 0.831649 6.21105 0.964994 6.42335 1.03342 6.51283 1.86332 6.51283 2.05456 6.51283L4.52494 6.51283 3.27922 4.66882C2.44758 3.42836 1.8756 1.75278 1.8756 0.289498 1.8756 0.156154 1.8756-0.22458 2.27914-0.22458 2.68444-0.22458 2.68444 0.156154 2.68444 0.300025L2.68444 0.815858C2.68444 2.64584 2.9985 3.85296 3.51433 4.62495L5.06359 6.91462Z" transform="matrix(1.00295 0 0 -1 521.403 99.9399)"/><path d="M0 0-4.64105 0" stroke="#000000" stroke-width="1.06081" stroke-linejoin="round" fill="none" transform="matrix(1.00295 0 0 1 430.254 78.7544)"/><path d="M1.18957 3.81787C1.18957 6.47423 2.44758 7.07428 3.17746 7.07428 3.41432 7.07428 3.9863 7.03393 4.21088 6.62512 4.03192 6.62512 3.69505 6.62512 3.69505 6.23386 3.69505 5.93208 3.94068 5.83032 4.09859 5.83032 4.20035 5.83032 4.50213 5.87418 4.50213 6.24614 4.50213 6.93743 3.94068 7.3322 3.16693 7.3322 1.82998 7.3322 0.426352 5.94787 0.426352 3.481 0.426352 0.443897 1.69488-0.22458 2.5932-0.22458 3.68277-0.22458 4.71619 0.749186 4.71619 2.25107 4.71619 3.65119 3.80734 4.67057 2.66163 4.67057 1.97561 4.67057 1.4703 4.22316 1.18957 3.43889L1.18957 3.81787ZM2.5932 0.0438634C1.21238 0.0438634 1.21238 2.10544 1.21238 2.51951 1.21238 3.3266 1.59487 4.49161 2.63882 4.49161 2.83006 4.49161 3.37923 4.49161 3.75119 3.71961 3.95297 3.28098 3.95297 2.82305 3.95297 2.26159 3.95297 1.65628 3.95297 1.21063 3.7161 0.761468 3.47047 0.300025 3.11079 0.0438634 2.5932 0.0438634Z" transform="matrix(1.00295 0 0 -1 408.978 82.6533)"/><path d="M4.71619 3.55293C4.71619 4.23895 4.70566 5.40396 4.23369 6.30053 3.81787 7.08656 3.15465 7.36553 2.57215 7.36553 2.03175 7.36553 1.34748 7.1199 0.92113 6.31106 0.47197 5.47064 0.426352 4.42844 0.426352 3.55293 0.426352 2.91428 0.438634 1.94051 0.786031 1.08606 1.26853-0.0684268 2.13351-0.22458 2.57215-0.22458 3.08798-0.22458 3.87401-0.0122817 4.3337 1.05272 4.67057 1.82822 4.71619 2.73532 4.71619 3.55293ZM2.57215-0.0456179C1.85279-0.0456179 1.42644 0.570224 1.26853 1.42468 1.14571 2.08439 1.14571 3.04938 1.14571 3.6775 1.14571 4.54073 1.14571 5.25834 1.29134 5.94261 1.50539 6.89356 2.13351 7.18657 2.57215 7.18657 3.03183 7.18657 3.62662 6.88304 3.84068 5.96542 3.9863 5.32677 3.99683 4.57407 3.99683 3.6775 3.99683 2.94762 3.99683 2.05105 3.86348 1.38959 3.62662 0.166681 2.96516-0.0456179 2.57215-0.0456179Z" transform="matrix(1.00295 0 0 -1 414.143 82.6533)"/><path d="M0 0-4.64105 0" stroke="#000000" stroke-width="1.06081" stroke-linejoin="round" fill="none" transform="matrix(1.00295 0 0 1 430.254 58.2269)"/><path d="M1.18957 3.81787C1.18957 6.47423 2.44758 7.07428 3.17746 7.07428 3.41432 7.07428 3.9863 7.03393 4.21088 6.62512 4.03192 6.62512 3.69505 6.62512 3.69505 6.23386 3.69505 5.93208 3.94068 5.83032 4.09859 5.83032 4.20035 5.83032 4.50213 5.87418 4.50213 6.24614 4.50213 6.93743 3.94068 7.3322 3.16693 7.3322 1.82998 7.3322 0.426352 5.94787 0.426352 3.481 0.426352 0.443897 1.69488-0.22458 2.5932-0.22458 3.68277-0.22458 4.71619 0.749186 4.71619 2.25107 4.71619 3.65119 3.80734 4.67057 2.66163 4.67057 1.97561 4.67057 1.4703 4.22316 1.18957 3.43889L1.18957 3.81787ZM2.5932 0.0438634C1.21238 0.0438634 1.21238 2.10544 1.21238 2.51951 1.21238 3.3266 1.59487 4.49161 2.63882 4.49161 2.83006 4.49161 3.37923 4.49161 3.75119 3.71961 3.95297 3.28098 3.95297 2.82305 3.95297 2.26159 3.95297 1.65628 3.95297 1.21063 3.7161 0.761468 3.47047 0.300025 3.11079 0.0438634 2.5932 0.0438634Z" transform="matrix(1.00295 0 0 -1 408.978 62.1259)"/><path d="M1.18957 3.81787C1.18957 6.47423 2.44758 7.07428 3.17746 7.07428 3.41432 7.07428 3.9863 7.03393 4.21088 6.62512 4.03192 6.62512 3.69505 6.62512 3.69505 6.23386 3.69505 5.93208 3.94068 5.83032 4.09859 5.83032 4.20035 5.83032 4.50213 5.87418 4.50213 6.24614 4.50213 6.93743 3.94068 7.3322 3.16693 7.3322 1.82998 7.3322 0.426352 5.94787 0.426352 3.481 0.426352 0.443897 1.69488-0.22458 2.5932-0.22458 3.68277-0.22458 4.71619 0.749186 4.71619 2.25107 4.71619 3.65119 3.80734 4.67057 2.66163 4.67057 1.97561 4.67057 1.4703 4.22316 1.18957 3.43889L1.18957 3.81787ZM2.5932 0.0438634C1.21238 0.0438634 1.21238 2.10544 1.21238 2.51951 1.21238 3.3266 1.59487 4.49161 2.63882 4.49161 2.83006 4.49161 3.37923 4.49161 3.75119 3.71961 3.95297 3.28098 3.95297 2.82305 3.95297 2.26159 3.95297 1.65628 3.95297 1.21063 3.7161 0.761468 3.47047 0.300025 3.11079 0.0438634 2.5932 0.0438634Z" transform="matrix(1.00295 0 0 -1 414.143 62.1259)"/><path d="M0 0-4.64105 0" stroke="#000000" stroke-width="1.06081" stroke-linejoin="round" fill="none" transform="matrix(1.00295 0 0 1 430.254 37.6995)"/><path d="M5.06359 6.91462 5.06359 7.16025 2.42477 7.16025C1.11237 7.16025 1.08957 7.30763 1.04395 7.52344L0.842176 7.52344 0.515833 5.42853 0.719359 5.42853C0.752695 5.64083 0.831649 6.21105 0.964994 6.42335 1.03342 6.51283 1.86332 6.51283 2.05456 6.51283L4.52494 6.51283 3.27922 4.66882C2.44758 3.42836 1.8756 1.75278 1.8756 0.289498 1.8756 0.156154 1.8756-0.22458 2.27914-0.22458 2.68444-0.22458 2.68444 0.156154 2.68444 0.300025L2.68444 0.815858C2.68444 2.64584 2.9985 3.85296 3.51433 4.62495L5.06359 6.91462Z" transform="matrix(1.00295 0 0 -1 408.978 41.5984)"/><path d="M4.68285 1.73523 4.48108 1.73523C4.36879 0.94043 4.27755 0.805331 4.23369 0.736904 4.17755 0.647423 3.36871 0.647423 3.2108 0.647423L1.05623 0.647423C1.45977 1.08606 2.2458 1.88086 3.20027 2.80199 3.88454 3.45117 4.68285 4.21439 4.68285 5.32501 4.68285 6.64968 3.62662 7.41115 2.44758 7.41115 1.21238 7.41115 0.459688 6.32334 0.459688 5.31624 0.459688 4.8776 0.786031 4.82146 0.92113 4.82146 1.03342 4.82146 1.37029 4.88989 1.37029 5.28115 1.37029 5.62679 1.07728 5.7268 0.92113 5.7268 0.852704 5.7268 0.786031 5.71627 0.740413 5.69346 0.954467 6.64968 1.6054 7.1199 2.29142 7.1199 3.26694 7.1199 3.90735 6.34615 3.90735 5.32501 3.90735 4.34949 3.33537 3.50907 2.69496 2.77918L0.459688 0.256162 0.459688 0 4.41265 0 4.68285 1.73523Z" transform="matrix(1.00295 0 0 -1 414.143 41.5984)"/><g clip-path="url(#clip12)"><path d="" stroke="#B8860B" stroke-width="1.06081" stroke-linejoin="round" stroke-dasharray="3.925 1.6973" fill="none" transform="matrix(1.00295 0 0 1 399.402 19.9412)"/></g><g><path d="M-1.90615 3.81229 0 1.90615 1.90615 3.81229 3.81229 1.90615 1.90615 0 3.81229-1.90615 1.90615-3.81229 0-1.90615-1.90615-3.81229-3.81229-1.90615-1.90615 0-3.81229 1.90615Z" stroke="#B8860B" stroke-width="1.06081" fill="none" transform="matrix(1.00295 0 0 1 438.453 74.3262)"/></g><g clip-path="url(#clip13)"><path d="" stroke="#32CD32" stroke-width="1.06081" stroke-linejoin="round" stroke-dasharray="1.06081 1.75034" fill="none" transform="matrix(1.00295 0 0 1 399.402 19.9412)"/></g><g><path d="M0 3.98495 3.98495 0 0-3.98495-3.98495 0Z" stroke="#32CD32" stroke-width="1.06081" fill="none" transform="matrix(1.00295 0 0 1 459.773 54.1991)"/></g><g><path d="M120.231 62.9187 120.231 9.54731" stroke="#8B4513" stroke-width="1.06081" stroke-linejoin="round" stroke-dasharray="3.925 1.6973" fill="none" transform="matrix(1.00295 0 0 1 399.402 19.9412)"/></g><g clip-path="url(#clip14)"><path d="" stroke="#0000FF" stroke-width="1.06081" stroke-linecap="square" stroke-linejoin="round" fill="none" transform="matrix(1.00295 0 0 1 399.402 19.9412)"/></g><g><path d="M0-4.30955-0.967553-1.33172-4.09862-1.33172-1.56554 0.508673-2.53309 3.4865 0 1.6461 2.53309 3.4865 1.56554 0.508673 4.09862-1.33172 0.967553-1.33172Z" stroke="#0000FF" stroke-width="1.06081" stroke-linejoin="bevel" fill="none" transform="matrix(1.00295 0 0 1 440.191 41.2141)"/></g><path d="M30.7604 62.9187 30.7604 9.54731" stroke="#000000" stroke-width="1.06081" stroke-linecap="square" fill="none" transform="matrix(1.00295 0 0 1 399.402 19.9412)"/><path d="M128.429 62.9187 128.429 9.54731" stroke="#000000" stroke-width="1.06081" stroke-linecap="square" fill="none" transform="matrix(1.00295 0 0 1 399.402 19.9412)"/><path d="M30.7604 62.9187 128.429 62.9187" stroke="#000000" stroke-width="1.06081" stroke-linecap="square" fill="none" transform="matrix(1.00295 0 0 1 399.402 19.9412)"/><path d="M30.7604 9.54731 128.429 9.54731" stroke="#000000" stroke-width="1.06081" stroke-linecap="square" fill="none" transform="matrix(1.00295 0 0 1 399.402 19.9412)"/></g></g></g><g><g><g><path d="M0 91.7294 138.786 91.7294 138.786 0 0 0Z" fill="#FFFFFF" transform="matrix(1.00295 0 0 1 529.402 19.9412)"/><path d="M30.7604 62.9187 128.429 62.9187 128.429 9.54731 30.7604 9.54731Z" fill="#FFFFFF" transform="matrix(1.00295 0 0 1 529.402 19.9412)"/><path d="M0 0 0 4.64105" stroke="#000000" stroke-width="1.06081" stroke-linejoin="round" fill="none" transform="matrix(1.00295 0 0 1 568.417 82.8598)"/><path d="M4.71619 3.55293C4.71619 4.23895 4.70566 5.40396 4.23369 6.30053 3.81787 7.08656 3.15465 7.36553 2.57215 7.36553 2.03175 7.36553 1.34748 7.1199 0.92113 6.31106 0.47197 5.47064 0.426352 4.42844 0.426352 3.55293 0.426352 2.91428 0.438634 1.94051 0.786031 1.08606 1.26853-0.0684268 2.13351-0.22458 2.57215-0.22458 3.08798-0.22458 3.87401-0.0122817 4.3337 1.05272 4.67057 1.82822 4.71619 2.73532 4.71619 3.55293ZM2.57215-0.0456179C1.85279-0.0456179 1.42644 0.570224 1.26853 1.42468 1.14571 2.08439 1.14571 3.04938 1.14571 3.6775 1.14571 4.54073 1.14571 5.25834 1.29134 5.94261 1.50539 6.89356 2.13351 7.18657 2.57215 7.18657 3.03183 7.18657 3.62662 6.88304 3.84068 5.96542 3.9863 5.32677 3.99683 4.57407 3.99683 3.6775 3.99683 2.94762 3.99683 2.05105 3.86348 1.38959 3.62662 0.166681 2.96516-0.0456179 2.57215-0.0456179Z" transform="matrix(1.00295 0 0 -1 565.425 99.9399)"/><path d="M0 0 0 4.64105" stroke="#000000" stroke-width="1.06081" stroke-linejoin="round" fill="none" transform="matrix(1.00295 0 0 1 609.232 82.8598)"/><path d="M2.98622 7.1199C2.98622 7.35501 2.97569 7.35501 2.81778 7.35501 2.3809 6.87076 1.71769 6.7146 1.08957 6.7146 1.05623 6.7146 1.00008 6.7146 0.987803 6.68127 0.977275 6.65846 0.977275 6.63565 0.977275 6.40054 1.32467 6.40054 1.90893 6.46721 2.35809 6.73566L2.35809 0.80884C2.35809 0.41407 2.33528 0.280725 1.37029 0.280725L1.03342 0.280725 1.03342 0C1.57206 0 2.13351 0 2.67216 0 3.2108 0 3.77225 0 4.31264 0L4.31264 0.280725 3.97577 0.280725C3.00903 0.280725 2.98622 0.403543 2.98622 0.803577L2.98622 7.1199Z" transform="matrix(1.00295 0 0 -1 600.257 99.9399)"/><path d="M4.71619 3.55293C4.71619 4.23895 4.70566 5.40396 4.23369 6.30053 3.81787 7.08656 3.15465 7.36553 2.57215 7.36553 2.03175 7.36553 1.34748 7.1199 0.92113 6.31106 0.47197 5.47064 0.426352 4.42844 0.426352 3.55293 0.426352 2.91428 0.438634 1.94051 0.786031 1.08606 1.26853-0.0684268 2.13351-0.22458 2.57215-0.22458 3.08798-0.22458 3.87401-0.0122817 4.3337 1.05272 4.67057 1.82822 4.71619 2.73532 4.71619 3.55293ZM2.57215-0.0456179C1.85279-0.0456179 1.42644 0.570224 1.26853 1.42468 1.14571 2.08439 1.14571 3.04938 1.14571 3.6775 1.14571 4.54073 1.14571 5.25834 1.29134 5.94261 1.50539 6.89356 2.13351 7.18657 2.57215 7.18657 3.03183 7.18657 3.62662 6.88304 3.84068 5.96542 3.9863 5.32677 3.99683 4.57407 3.99683 3.6775 3.99683 2.94762 3.99683 2.05105 3.86348 1.38959 3.62662 0.166681 2.96516-0.0456179 2.57215-0.0456179Z" transform="matrix(1.00295 0 0 -1 605.422 99.9399)"/><path d="M4.71619 3.55293C4.71619 4.23895 4.70566 5.40396 4.23369 6.30053 3.81787 7.08656 3.15465 7.36553 2.57215 7.36553 2.03175 7.36553 1.34748 7.1199 0.92113 6.31106 0.47197 5.47064 0.426352 4.42844 0.426352 3.55293 0.426352 2.91428 0.438634 1.94051 0.786031 1.08606 1.26853-0.0684268 2.13351-0.22458 2.57215-0.22458 3.08798-0.22458 3.87401-0.0122817 4.3337 1.05272 4.67057 1.82822 4.71619 2.73532 4.71619 3.55293ZM2.57215-0.0456179C1.85279-0.0456179 1.42644 0.570224 1.26853 1.42468 1.14571 2.08439 1.14571 3.04938 1.14571 3.6775 1.14571 4.54073 1.14571 5.25834 1.29134 5.94261 1.50539 6.89356 2.13351 7.18657 2.57215 7.18657 3.03183 7.18657 3.62662 6.88304 3.84068 5.96542 3.9863 5.32677 3.99683 4.57407 3.99683 3.6775 3.99683 2.94762 3.99683 2.05105 3.86348 1.38959 3.62662 0.166681 2.96516-0.0456179 2.57215-0.0456179Z" transform="matrix(1.00295 0 0 -1 610.587 99.9399)"/><path d="M0 0 0 4.64105" stroke="#000000" stroke-width="1.06081" stroke-linejoin="round" fill="none" transform="matrix(1.00295 0 0 1 650.047 82.8598)"/><path d="M4.68285 1.73523 4.48108 1.73523C4.36879 0.94043 4.27755 0.805331 4.23369 0.736904 4.17755 0.647423 3.36871 0.647423 3.2108 0.647423L1.05623 0.647423C1.45977 1.08606 2.2458 1.88086 3.20027 2.80199 3.88454 3.45117 4.68285 4.21439 4.68285 5.32501 4.68285 6.64968 3.62662 7.41115 2.44758 7.41115 1.21238 7.41115 0.459688 6.32334 0.459688 5.31624 0.459688 4.8776 0.786031 4.82146 0.92113 4.82146 1.03342 4.82146 1.37029 4.88989 1.37029 5.28115 1.37029 5.62679 1.07728 5.7268 0.92113 5.7268 0.852704 5.7268 0.786031 5.71627 0.740413 5.69346 0.954467 6.64968 1.6054 7.1199 2.29142 7.1199 3.26694 7.1199 3.90735 6.34615 3.90735 5.32501 3.90735 4.34949 3.33537 3.50907 2.69496 2.77918L0.459688 0.256162 0.459688 0 4.41265 0 4.68285 1.73523Z" transform="matrix(1.00295 0 0 -1 641.073 99.9399)"/><path d="M4.71619 3.55293C4.71619 4.23895 4.70566 5.40396 4.23369 6.30053 3.81787 7.08656 3.15465 7.36553 2.57215 7.36553 2.03175 7.36553 1.34748 7.1199 0.92113 6.31106 0.47197 5.47064 0.426352 4.42844 0.426352 3.55293 0.426352 2.91428 0.438634 1.94051 0.786031 1.08606 1.26853-0.0684268 2.13351-0.22458 2.57215-0.22458 3.08798-0.22458 3.87401-0.0122817 4.3337 1.05272 4.67057 1.82822 4.71619 2.73532 4.71619 3.55293ZM2.57215-0.0456179C1.85279-0.0456179 1.42644 0.570224 1.26853 1.42468 1.14571 2.08439 1.14571 3.04938 1.14571 3.6775 1.14571 4.54073 1.14571 5.25834 1.29134 5.94261 1.50539 6.89356 2.13351 7.18657 2.57215 7.18657 3.03183 7.18657 3.62662 6.88304 3.84068 5.96542 3.9863 5.32677 3.99683 4.57407 3.99683 3.6775 3.99683 2.94762 3.99683 2.05105 3.86348 1.38959 3.62662 0.166681 2.96516-0.0456179 2.57215-0.0456179Z" transform="matrix(1.00295 0 0 -1 646.238 99.9399)"/><path d="M4.71619 3.55293C4.71619 4.23895 4.70566 5.40396 4.23369 6.30053 3.81787 7.08656 3.15465 7.36553 2.57215 7.36553 2.03175 7.36553 1.34748 7.1199 0.92113 6.31106 0.47197 5.47064 0.426352 4.42844 0.426352 3.55293 0.426352 2.91428 0.438634 1.94051 0.786031 1.08606 1.26853-0.0684268 2.13351-0.22458 2.57215-0.22458 3.08798-0.22458 3.87401-0.0122817 4.3337 1.05272 4.67057 1.82822 4.71619 2.73532 4.71619 3.55293ZM2.57215-0.0456179C1.85279-0.0456179 1.42644 0.570224 1.26853 1.42468 1.14571 2.08439 1.14571 3.04938 1.14571 3.6775 1.14571 4.54073 1.14571 5.25834 1.29134 5.94261 1.50539 6.89356 2.13351 7.18657 2.57215 7.18657 3.03183 7.18657 3.62662 6.88304 3.84068 5.96542 3.9863 5.32677 3.99683 4.57407 3.99683 3.6775 3.99683 2.94762 3.99683 2.05105 3.86348 1.38959 3.62662 0.166681 2.96516-0.0456179 2.57215-0.0456179Z" transform="matrix(1.00295 0 0 -1 651.403 99.9399)"/><path d="M0 0-4.64105 0" stroke="#000000" stroke-width="1.06081" stroke-linejoin="round" fill="none" transform="matrix(1.00295 0 0 1 560.254 78.7544)"/><path d="M5.06359 6.91462 5.06359 7.16025 2.42477 7.16025C1.11237 7.16025 1.08957 7.30763 1.04395 7.52344L0.842176 7.52344 0.515833 5.42853 0.719359 5.42853C0.752695 5.64083 0.831649 6.21105 0.964994 6.42335 1.03342 6.51283 1.86332 6.51283 2.05456 6.51283L4.52494 6.51283 3.27922 4.66882C2.44758 3.42836 1.8756 1.75278 1.8756 0.289498 1.8756 0.156154 1.8756-0.22458 2.27914-0.22458 2.68444-0.22458 2.68444 0.156154 2.68444 0.300025L2.68444 0.815858C2.68444 2.64584 2.9985 3.85296 3.51433 4.62495L5.06359 6.91462Z" transform="matrix(1.00295 0 0 -1 538.978 82.6533)"/><path d="M4.71619 3.55293C4.71619 4.23895 4.70566 5.40396 4.23369 6.30053 3.81787 7.08656 3.15465 7.36553 2.57215 7.36553 2.03175 7.36553 1.34748 7.1199 0.92113 6.31106 0.47197 5.47064 0.426352 4.42844 0.426352 3.55293 0.426352 2.91428 0.438634 1.94051 0.786031 1.08606 1.26853-0.0684268 2.13351-0.22458 2.57215-0.22458 3.08798-0.22458 3.87401-0.0122817 4.3337 1.05272 4.67057 1.82822 4.71619 2.73532 4.71619 3.55293ZM2.57215-0.0456179C1.85279-0.0456179 1.42644 0.570224 1.26853 1.42468 1.14571 2.08439 1.14571 3.04938 1.14571 3.6775 1.14571 4.54073 1.14571 5.25834 1.29134 5.94261 1.50539 6.89356 2.13351 7.18657 2.57215 7.18657 3.03183 7.18657 3.62662 6.88304 3.84068 5.96542 3.9863 5.32677 3.99683 4.57407 3.99683 3.6775 3.99683 2.94762 3.99683 2.05105 3.86348 1.38959 3.62662 0.166681 2.96516-0.0456179 2.57215-0.0456179Z" transform="matrix(1.00295 0 0 -1 544.143 82.6533)"/><path d="M0 0-4.64105 0" stroke="#000000" stroke-width="1.06081" stroke-linejoin="round" fill="none" transform="matrix(1.00295 0 0 1 560.254 62.3324)"/><path d="M5.06359 6.91462 5.06359 7.16025 2.42477 7.16025C1.11237 7.16025 1.08957 7.30763 1.04395 7.52344L0.842176 7.52344 0.515833 5.42853 0.719359 5.42853C0.752695 5.64083 0.831649 6.21105 0.964994 6.42335 1.03342 6.51283 1.86332 6.51283 2.05456 6.51283L4.52494 6.51283 3.27922 4.66882C2.44758 3.42836 1.8756 1.75278 1.8756 0.289498 1.8756 0.156154 1.8756-0.22458 2.27914-0.22458 2.68444-0.22458 2.68444 0.156154 2.68444 0.300025L2.68444 0.815858C2.68444 2.64584 2.9985 3.85296 3.51433 4.62495L5.06359 6.91462Z" transform="matrix(1.00295 0 0 -1 538.978 66.2314)"/><path d="M4.68285 1.73523 4.48108 1.73523C4.36879 0.94043 4.27755 0.805331 4.23369 0.736904 4.17755 0.647423 3.36871 0.647423 3.2108 0.647423L1.05623 0.647423C1.45977 1.08606 2.2458 1.88086 3.20027 2.80199 3.88454 3.45117 4.68285 4.21439 4.68285 5.32501 4.68285 6.64968 3.62662 7.41115 2.44758 7.41115 1.21238 7.41115 0.459688 6.32334 0.459688 5.31624 0.459688 4.8776 0.786031 4.82146 0.92113 4.82146 1.03342 4.82146 1.37029 4.88989 1.37029 5.28115 1.37029 5.62679 1.07728 5.7268 0.92113 5.7268 0.852704 5.7268 0.786031 5.71627 0.740413 5.69346 0.954467 6.64968 1.6054 7.1199 2.29142 7.1199 3.26694 7.1199 3.90735 6.34615 3.90735 5.32501 3.90735 4.34949 3.33537 3.50907 2.69496 2.77918L0.459688 0.256162 0.459688 0 4.41265 0 4.68285 1.73523Z" transform="matrix(1.00295 0 0 -1 544.143 66.2314)"/><path d="M0 0-4.64105 0" stroke="#000000" stroke-width="1.06081" stroke-linejoin="round" fill="none" transform="matrix(1.00295 0 0 1 560.254 37.6995)"/><path d="M5.06359 6.91462 5.06359 7.16025 2.42477 7.16025C1.11237 7.16025 1.08957 7.30763 1.04395 7.52344L0.842176 7.52344 0.515833 5.42853 0.719359 5.42853C0.752695 5.64083 0.831649 6.21105 0.964994 6.42335 1.03342 6.51283 1.86332 6.51283 2.05456 6.51283L4.52494 6.51283 3.27922 4.66882C2.44758 3.42836 1.8756 1.75278 1.8756 0.289498 1.8756 0.156154 1.8756-0.22458 2.27914-0.22458 2.68444-0.22458 2.68444 0.156154 2.68444 0.300025L2.68444 0.815858C2.68444 2.64584 2.9985 3.85296 3.51433 4.62495L5.06359 6.91462Z" transform="matrix(1.00295 0 0 -1 538.978 41.5984)"/><path d="M1.28081 6.47774C1.3931 6.43212 1.85279 6.28825 2.32476 6.28825 3.36871 6.28825 3.94068 6.86198 4.26703 7.19359 4.26703 7.2936 4.26703 7.35501 4.20035 7.35501 4.18807 7.35501 4.16526 7.35501 4.07578 7.30413 3.68277 7.1199 3.22308 6.97076 2.66163 6.97076 2.32476 6.97076 1.81945 7.01638 1.26853 7.26202 1.14571 7.31816 1.1229 7.31816 1.11237 7.31816 1.05623 7.31816 1.04395 7.30588 1.04395 7.08305L1.04395 3.86524C1.04395 3.66522 1.04395 3.60908 1.15624 3.60908 1.21238 3.60908 1.23519 3.63189 1.29134 3.70908 1.65102 4.21264 2.14404 4.42493 2.70549 4.42493 3.09851 4.42493 3.94068 4.1793 3.94068 2.26159 3.94068 1.90367 3.94068 1.25449 3.60381 0.738659 3.32309 0.278971 2.88621 0.0438634 2.40371 0.0438634 1.66154 0.0438634 0.908849 0.561451 0.707077 1.42819 0.752695 1.41591 0.842176 1.39485 0.887794 1.39485 1.03342 1.39485 1.31415 1.47381 1.31415 1.82121 1.31415 2.12299 1.10009 2.2458 0.887794 2.2458 0.628123 2.2458 0.459688 2.0879 0.459688 1.77383 0.459688 0.796558 1.23519-0.22458 2.42477-0.22458 3.58276-0.22458 4.68285 0.771995 4.68285 2.21773 4.68285 3.5617 3.80734 4.6039 2.71777 4.6039 2.14404 4.6039 1.66154 4.3916 1.28081 3.98981L1.28081 6.47774Z" transform="matrix(1.00295 0 0 -1 544.143 41.5984)"/><g clip-path="url(#clip15)"><path d="" stroke="#B8860B" stroke-width="1.06081" stroke-linejoin="round" stroke-dasharray="3.925 1.6973" fill="none" transform="matrix(1.00295 0 0 1 529.402 19.9412)"/></g><g><path d="M-1.90615 3.81229 0 1.90615 1.90615 3.81229 3.81229 1.90615 1.90615 0 3.81229-1.90615 1.90615-3.81229 0-1.90615-1.90615-3.81229-3.81229-1.90615-1.90615 0-3.81229 1.90615Z" stroke="#B8860B" stroke-width="1.06081" fill="none" transform="matrix(1.00295 0 0 1 568.457 65.4641)"/></g><g clip-path="url(#clip16)"><path d="" stroke="#32CD32" stroke-width="1.06081" stroke-linejoin="round" stroke-dasharray="1.06081 1.75034" fill="none" transform="matrix(1.00295 0 0 1 529.402 19.9412)"/></g><g><path d="M0 3.98495 3.98495 0 0-3.98495-3.98495 0Z" stroke="#32CD32" stroke-width="1.06081" fill="none" transform="matrix(1.00295 0 0 1 595.567 72.8786)"/></g><g><path d="M120.123 62.9187 120.123 9.54731" stroke="#8B4513" stroke-width="1.06081" stroke-linejoin="round" stroke-dasharray="3.925 1.6973" fill="none" transform="matrix(1.00295 0 0 1 529.402 19.9412)"/></g><g clip-path="url(#clip17)"><path d="" stroke="#0000FF" stroke-width="1.06081" stroke-linecap="square" stroke-linejoin="round" fill="none" transform="matrix(1.00295 0 0 1 529.402 19.9412)"/></g><g><path d="M0-4.30955-0.967553-1.33172-4.09862-1.33172-1.56554 0.508673-2.53309 3.4865 0 1.6461 2.53309 3.4865 1.56554 0.508673 4.09862-1.33172 0.967553-1.33172Z" stroke="#0000FF" stroke-width="1.06081" stroke-linejoin="bevel" fill="none" transform="matrix(1.00295 0 0 1 571.021 40.3705)"/></g><path d="M30.7604 62.9187 30.7604 9.54731" stroke="#000000" stroke-width="1.06081" stroke-linecap="square" fill="none" transform="matrix(1.00295 0 0 1 529.402 19.9412)"/><path d="M128.429 62.9187 128.429 9.54731" stroke="#000000" stroke-width="1.06081" stroke-linecap="square" fill="none" transform="matrix(1.00295 0 0 1 529.402 19.9412)"/><path d="M30.7604 62.9187 128.429 62.9187" stroke="#000000" stroke-width="1.06081" stroke-linecap="square" fill="none" transform="matrix(1.00295 0 0 1 529.402 19.9412)"/><path d="M30.7604 9.54731 128.429 9.54731" stroke="#000000" stroke-width="1.06081" stroke-linecap="square" fill="none" transform="matrix(1.00295 0 0 1 529.402 19.9412)"/></g></g></g><text font-family="Times New Roman,Times New Roman_MSFontService,sans-serif" font-weight="400" font-size="12" transform="matrix(1 0 0 0.997059 37.7387 110)">Pruning Time (hours)</text><text font-family="Times New Roman,Times New Roman_MSFontService,sans-serif" font-weight="400" font-size="12" transform="matrix(1 0 0 0.997059 167.27 110)">Pruning Time (hours)</text><text font-family="Times New Roman,Times New Roman_MSFontService,sans-serif" font-weight="400" font-size="12" transform="matrix(1 0 0 0.997059 296.802 110)">Pruning Time (hours)</text><text font-family="Times New Roman,Times New Roman_MSFontService,sans-serif" font-weight="400" font-size="12" transform="matrix(1 0 0 0.997059 426.334 110)">Pruning Time (hours)</text><text font-family="Times New Roman,Times New Roman_MSFontService,sans-serif" font-weight="400" font-size="12" transform="matrix(1 0 0 0.997059 556.626 110)">Pruning Time (hours)</text><path d="M38 28.9147C38 27.2627 39.3431 25.9235 41 25.9235 42.6569 25.9235 44 27.2627 44 28.9147 44 30.5667 42.6569 31.9059 41 31.9059 39.3431 31.9059 38 30.5667 38 28.9147Z" fill="#C00000" fill-rule="evenodd"/><text fill="#C00000" font-family="Times New Roman,Times New Roman_MSFontService,sans-serif" font-weight="700" font-size="12" transform="matrix(1 0 0 0.997059 29.6479 26)">Best</text><path d="M167 28.9147C167 27.2627 168.343 25.9235 170 25.9235 171.657 25.9235 173 27.2627 173 28.9147 173 30.5667 171.657 31.9059 170 31.9059 168.343 31.9059 167 30.5667 167 28.9147Z" fill="#C00000" fill-rule="evenodd"/><text fill="#C00000" font-family="Times New Roman,Times New Roman_MSFontService,sans-serif" font-weight="700" font-size="12" transform="matrix(1 0 0 0.997059 159.378 26)">Best</text><path d="M297 28.9147C297 27.2627 298.343 25.9235 300 25.9235 301.657 25.9235 303 27.2627 303 28.9147 303 30.5667 301.657 31.9059 300 31.9059 298.343 31.9059 297 30.5667 297 28.9147Z" fill="#C00000" fill-rule="evenodd"/><text fill="#C00000" font-family="Times New Roman,Times New Roman_MSFontService,sans-serif" font-weight="700" font-size="12" transform="matrix(1 0 0 0.997059 289.188 26)">Best</text><path d="M427 28.9147C427 27.2627 428.343 25.9235 430 25.9235 431.657 25.9235 433 27.2627 433 28.9147 433 30.5667 431.657 31.9059 430 31.9059 428.343 31.9059 427 30.5667 427 28.9147Z" fill="#C00000" fill-rule="evenodd"/><text fill="#C00000" font-family="Times New Roman,Times New Roman_MSFontService,sans-serif" font-weight="700" font-size="12" transform="matrix(1 0 0 0.997059 419.174 26)">Best</text><path d="M557 28.9147C557 27.2627 558.343 25.9235 560 25.9235 561.657 25.9235 563 27.2627 563 28.9147 563 30.5667 561.657 31.9059 560 31.9059 558.343 31.9059 557 30.5667 557 28.9147Z" fill="#C00000" fill-rule="evenodd"/><text fill="#C00000" font-family="Times New Roman,Times New Roman_MSFontService,sans-serif" font-weight="700" font-size="12" transform="matrix(1 0 0 0.997059 548.868 26)">Best</text><path d="M121.5 7.53355 124.001 7.24898 125 4.48682 125.999 7.24898 128.5 7.53355 126.616 9.52523 127.163 12.4633 125 10.932 122.837 12.4633 123.384 9.52523Z" stroke="#0000FF" stroke-width="1.13333" stroke-miterlimit="8" fill="none" fill-rule="evenodd"/><text font-family="Times New Roman,Times New Roman_MSFontService,sans-serif" font-weight="400" font-size="12" transform="matrix(1 0 0 0.997059 133.449 13)">SPRINT (proposed)</text><path d="M241.541 6.68359 243.703 4.528 246 6.81798 248.297 4.528 250.459 6.68359 248.162 8.97358 250.459 11.2636 248.297 13.4192 246 11.1292 243.703 13.4192 241.541 11.2636 243.838 8.97358Z" stroke="#B8860B" stroke-width="1.13333" stroke-miterlimit="8" fill="none" fill-rule="evenodd"/><text font-family="Times New Roman,Times New Roman_MSFontService,sans-serif" font-weight="400" font-size="12" transform="matrix(1 0 0 0.997059 254.106 13)">ShortGPT</text><path d="M314.5 7.97652 319 3.48976 323.5 7.97652 319 12.4633Z" stroke="#32CD32" stroke-width="1.13333" stroke-miterlimit="8" fill="none" fill-rule="evenodd"/><text font-family="Times New Roman,Times New Roman_MSFontService,sans-serif" font-weight="400" font-size="12" transform="matrix(1 0 0 0.997059 326.977 12)">SLEB</text><text font-family="Times New Roman,Times New Roman_MSFontService,sans-serif" font-weight="400" font-size="12" transform="matrix(1 0 0 0.997059 462.777 13)">BlockPruner</text><text font-family="Times New Roman,Times New Roman_MSFontService,sans-serif" font-weight="400" font-size="12" transform="matrix(1 0 0 0.997059 526.444 13)">(estimated)</text><path d="M446.5 8.47505 459.877 8.47516" stroke="#8B4513" stroke-width="1.13333" stroke-miterlimit="8" stroke-dasharray="4.53333 3.4" fill="none" fill-rule="evenodd"/><path d="M367.5 7.15271 370.5 4.48682 373.5 7.15271 372.354 11.4662 368.646 11.4662Z" stroke="#8B4513" stroke-width="1.13333" stroke-miterlimit="8" fill="none" fill-rule="evenodd"/><text font-family="Times New Roman,Times New Roman_MSFontService,sans-serif" font-weight="400" font-size="12" transform="matrix(1 0 0 0.997059 376.942 13)">BlockPruner</text><text font-family="Times New Roman,Times New Roman_MSFontService,sans-serif" font-weight="700" font-size="12" transform="matrix(1 0 0 0.997059 61.072 27)">Llama2</text><text font-family="Times New Roman,Times New Roman_MSFontService,sans-serif" font-weight="700" font-size="12" transform="matrix(1 0 0 0.997059 100.405 27)">-</text><text font-family="Times New Roman,Times New Roman_MSFontService,sans-serif" font-weight="700" font-size="12" transform="matrix(1 0 0 0.997059 104.405 27)">7B</text><text font-family="Times New Roman,Times New Roman_MSFontService,sans-serif" font-weight="700" font-size="12" transform="matrix(1 0 0 0.997059 187.604 27)">Llama2</text><text font-family="Times New Roman,Times New Roman_MSFontService,sans-serif" font-weight="700" font-size="12" transform="matrix(1 0 0 0.997059 226.937 27)">-</text><text font-family="Times New Roman,Times New Roman_MSFontService,sans-serif" font-weight="700" font-size="12" transform="matrix(1 0 0 0.997059 230.937 27)">13B</text><text font-family="Times New Roman,Times New Roman_MSFontService,sans-serif" font-weight="700" font-size="12" transform="matrix(1 0 0 0.997059 320.135 27)">Llama3</text><text font-family="Times New Roman,Times New Roman_MSFontService,sans-serif" font-weight="700" font-size="12" transform="matrix(1 0 0 0.997059 359.469 27)">-</text><text font-family="Times New Roman,Times New Roman_MSFontService,sans-serif" font-weight="700" font-size="12" transform="matrix(1 0 0 0.997059 363.469 27)">8B</text><text font-family="Times New Roman,Times New Roman_MSFontService,sans-serif" font-weight="700" font-size="12" transform="matrix(1 0 0 0.997059 446.667 27)">Llama2</text><text font-family="Times New Roman,Times New Roman_MSFontService,sans-serif" font-weight="700" font-size="12" transform="matrix(1 0 0 0.997059 486 27)">-</text><text font-family="Times New Roman,Times New Roman_MSFontService,sans-serif" font-weight="700" font-size="12" transform="matrix(1 0 0 0.997059 490 27)">70B</text><text font-family="Times New Roman,Times New Roman_MSFontService,sans-serif" font-weight="700" font-size="12" transform="matrix(1 0 0 0.997059 576.96 27)">Llama3</text><text font-family="Times New Roman,Times New Roman_MSFontService,sans-serif" font-weight="700" font-size="12" transform="matrix(1 0 0 0.997059 616.293 27)">-</text><text font-family="Times New Roman,Times New Roman_MSFontService,sans-serif" font-weight="700" font-size="12" transform="matrix(1 0 0 0.997059 620.293 27)">70B</text><path d="M124.5 36.3927 124.5 51.4663" stroke="#000000" stroke-width="0.666667" stroke-miterlimit="8" stroke-dasharray="0.666667 0.666667" fill="none" fill-rule="evenodd"/><path d="M47.5001 56.3339 121.47 56.334" stroke="#000000" stroke-width="0.666667" stroke-miterlimit="8" stroke-dasharray="0.666667 0.666667" fill="none" fill-rule="evenodd"/><path d="M0 0 0.000104678 4.89893" stroke="#C00000" stroke-width="1.32941" stroke-miterlimit="8" fill="none" fill-rule="evenodd" transform="matrix(1.00295 0 0 -1 52.5001 37.3034)"/><path d="M52.5001 35.3956 124.266 35.3957" stroke="#C00000" stroke-width="1.33333" stroke-miterlimit="8" fill="none" fill-rule="evenodd"/><path d="M0 0 0.000104678 4.89893" stroke="#C00000" stroke-width="1.32941" stroke-miterlimit="8" fill="none" fill-rule="evenodd" transform="matrix(1.00295 0 0 -1 124.5 37.3034)"/><path d="M45.5001 42.3751 50.4123 42.3752" stroke="#C00000" stroke-width="1.33333" stroke-miterlimit="8" fill="none" fill-rule="evenodd"/><path d="M47.5001 42.3751 47.5002 56.3698" stroke="#C00000" stroke-width="1.33333" stroke-miterlimit="8" fill="none" fill-rule="evenodd"/><path d="M45.5001 56.3339 50.4123 56.334" stroke="#C00000" stroke-width="1.33333" stroke-miterlimit="8" fill="none" fill-rule="evenodd"/><path d="M259.5 37.3898 259.5 39.4266" stroke="#000000" stroke-width="0.666667" stroke-miterlimit="8" stroke-dasharray="0.666667 0.666667" fill="none" fill-rule="evenodd"/><path d="M183.5 43.3721 256.215 43.3722" stroke="#000000" stroke-width="0.666667" stroke-miterlimit="8" stroke-dasharray="0.666667 0.666667" fill="none" fill-rule="evenodd"/><path d="M0 0 0.000104678 4.78578" stroke="#C00000" stroke-width="1.32941" stroke-miterlimit="8" fill="none" fill-rule="evenodd" transform="matrix(1.00295 0 0 -1 182.5 37.1902)"/><path d="M182.5 35.3956 259.526 35.3957" stroke="#C00000" stroke-width="1.33333" stroke-miterlimit="8" fill="none" fill-rule="evenodd"/><path d="M0 0 0.000104678 4.78578" stroke="#C00000" stroke-width="1.32941" stroke-miterlimit="8" fill="none" fill-rule="evenodd" transform="matrix(1.00295 0 0 -1 259.5 37.1902)"/><path d="M173.5 42.3751 178.412 42.3752" stroke="#C00000" stroke-width="1.33333" stroke-miterlimit="8" fill="none" fill-rule="evenodd"/><path d="M176.5 42.3751 176.5 44.2164" stroke="#C00000" stroke-width="1.33333" stroke-miterlimit="8" fill="none" fill-rule="evenodd"/><path d="M173.5 44.3692 178.412 44.3693" stroke="#C00000" stroke-width="1.33333" stroke-miterlimit="8" fill="none" fill-rule="evenodd"/><path d="M385.5 37.3898 385.5 45.2223" stroke="#000000" stroke-width="0.666667" stroke-miterlimit="8" stroke-dasharray="0.666667 0.666667" fill="none" fill-rule="evenodd"/><path d="M0 0 0.000104678 4.89893" stroke="#C00000" stroke-width="1.32941" stroke-miterlimit="8" fill="none" fill-rule="evenodd" transform="matrix(1.00295 0 0 -1 310.5 36.3063)"/><path d="M310.5 34.3986 384.896 34.3987" stroke="#C00000" stroke-width="1.33333" stroke-miterlimit="8" fill="none" fill-rule="evenodd"/><path d="M0 0 0.000104678 4.89893" stroke="#C00000" stroke-width="1.32941" stroke-miterlimit="8" fill="none" fill-rule="evenodd" transform="matrix(1.00295 0 0 -1 385.5 36.3063)"/><path d="M308.5 49.3545 380.555 49.3546" stroke="#000000" stroke-width="0.666667" stroke-miterlimit="8" stroke-dasharray="0.666667 0.666667" fill="none" fill-rule="evenodd"/><path d="M303.5 41.378 308.413 41.3781" stroke="#C00000" stroke-width="1.33333" stroke-miterlimit="8" fill="none" fill-rule="evenodd"/><path d="M306.5 41.378 306.5 48.7585" stroke="#C00000" stroke-width="1.33333" stroke-miterlimit="8" fill="none" fill-rule="evenodd"/><path d="M303.5 49.3545 308.413 49.3546" stroke="#C00000" stroke-width="1.33333" stroke-miterlimit="8" fill="none" fill-rule="evenodd"/><path d="M0 0 0.000104678 4.89893" stroke="#C00000" stroke-width="1.32941" stroke-miterlimit="8" fill="none" fill-rule="evenodd" transform="matrix(1.00295 0 0 -1 440.5 37.3034)"/><path d="M440.5 34.3986 519.781 34.3987" stroke="#C00000" stroke-width="1.33333" stroke-miterlimit="8" fill="none" fill-rule="evenodd"/><path d="M0 0 0.000104678 4.89893" stroke="#C00000" stroke-width="1.32941" stroke-miterlimit="8" fill="none" fill-rule="evenodd" transform="matrix(1.00295 0 0 -1 520.5 37.3034)"/><path d="M436.5 55.3368 455.398 55.3369" stroke="#000000" stroke-width="0.666667" stroke-miterlimit="8" stroke-dasharray="0.666667 0.666667" fill="none" fill-rule="evenodd"/><path d="M432.5 43.3721 437.413 43.3722" stroke="#C00000" stroke-width="1.33333" stroke-miterlimit="8" fill="none" fill-rule="evenodd"/><path d="M434.5 43.3721 434.5 54.4206" stroke="#C00000" stroke-width="1.33333" stroke-miterlimit="8" fill="none" fill-rule="evenodd"/><path d="M432.5 54.3398 437.413 54.3399" stroke="#C00000" stroke-width="1.33333" stroke-miterlimit="8" fill="none" fill-rule="evenodd"/><path d="M0 0 0.000104678 4.89893" stroke="#C00000" stroke-width="1.32941" stroke-miterlimit="8" fill="none" fill-rule="evenodd" transform="matrix(1.00295 0 0 -1 570.5 36.3063)"/><path d="M571.5 34.3986 650.127 34.3987" stroke="#C00000" stroke-width="1.33333" stroke-miterlimit="8" fill="none" fill-rule="evenodd"/><path d="M0 0 0.000104678 4.89893" stroke="#C00000" stroke-width="1.32941" stroke-miterlimit="8" fill="none" fill-rule="evenodd" transform="matrix(1.00295 0 0 -1 650.5 36.3063)"/><path d="M566.5 41.378 569.03 41.3781" stroke="#000000" stroke-width="0.666667" stroke-miterlimit="8" stroke-dasharray="0.666667 0.666667" fill="none" fill-rule="evenodd"/><path d="M560.5 41.378 566.233 41.3781" stroke="#C00000" stroke-width="1.33333" stroke-miterlimit="8" fill="none" fill-rule="evenodd"/><path d="M563.5 42.3751 563.5 65.4745" stroke="#C00000" stroke-width="1.33333" stroke-miterlimit="8" fill="none" fill-rule="evenodd"/><path d="M560.5 65.3074 566.233 65.3075" stroke="#C00000" stroke-width="1.33333" stroke-miterlimit="8" fill="none" fill-rule="evenodd"/><text fill="#C00000" font-family="Times New Roman,Times New Roman_MSFontService,sans-serif" font-weight="700" font-size="12" transform="matrix(1 0 0 0.997059 88.4512 46)">22.41</text><text fill="#C00000" font-family="Cambria Math,Cambria Math_MSFontService,sans-serif" font-weight="400" font-size="12" transform="matrix(1 0 0 0.997059 115.451 46)"></text><text fill="#C00000" font-family="Times New Roman,Times New Roman_MSFontService,sans-serif" font-weight="700" font-size="12" transform="matrix(1 0 0 0.997059 49.043 53)">6.21%p</text><text fill="#C00000" font-family="Times New Roman,Times New Roman_MSFontService,sans-serif" font-weight="700" font-size="12" transform="matrix(1 0 0 0.997059 177.693 61)">0.57%p</text><rect x="219" y="40.8794" width="33" height="4.98529" stroke="#FFFFFF" stroke-width="2" stroke-miterlimit="8" fill="#FFFFFF"/><text fill="#C00000" font-family="Times New Roman,Times New Roman_MSFontService,sans-serif" font-weight="700" font-size="12" transform="matrix(1 0 0 0.997059 218.017 47)">24.36</text><text fill="#C00000" font-family="Cambria Math,Cambria Math_MSFontService,sans-serif" font-weight="400" font-size="12" transform="matrix(1 0 0 0.997059 245.017 47)"></text><path d="M0 1.62401 5.54588 1.62401 5.54588 0 9.43187 1.91688 5.54588 3.83374 5.54588 2.20974 0 2.20974Z" fill="#C00000" fill-rule="evenodd" transform="matrix(-0.781572 -0.624848 -0.626691 0.779273 184.657 49.4296)"/><text fill="#C00000" font-family="Times New Roman,Times New Roman_MSFontService,sans-serif" font-weight="700" font-size="12" transform="matrix(1 0 0 0.997059 305.89 60)">6.19%p</text><text fill="#C00000" font-family="Times New Roman,Times New Roman_MSFontService,sans-serif" font-weight="700" font-size="12" transform="matrix(1 0 0 0.997059 348.963 46)">18.95</text><text fill="#C00000" font-family="Cambria Math,Cambria Math_MSFontService,sans-serif" font-weight="400" font-size="12" transform="matrix(1 0 0 0.997059 375.963 46)"></text><path d="M0 1.62335 8.56057 1.62335 8.56057 0 12.445 1.91609 8.56057 3.83217 8.56057 2.20882 0 2.20882Z" fill="#C00000" fill-rule="evenodd" transform="matrix(-0.86685 -0.501503 -0.502982 0.864301 318.153 48.8207)"/><text fill="#C00000" font-family="Times New Roman,Times New Roman_MSFontService,sans-serif" font-weight="700" font-size="12" transform="matrix(1 0 0 0.997059 435.389 69)">3.80%p</text><text fill="#C00000" font-family="Times New Roman,Times New Roman_MSFontService,sans-serif" font-weight="700" font-size="12" transform="matrix(1 0 0 0.997059 482.025 45)">40.01</text><text fill="#C00000" font-family="Cambria Math,Cambria Math_MSFontService,sans-serif" font-weight="400" font-size="12" transform="matrix(1 0 0 0.997059 509.025 45)"></text><path d="M0 1.62425 9.32003 1.62425 9.32003 0 13.2066 1.91716 9.32003 3.83431 9.32003 2.21006 0 2.21006Z" fill="#C00000" fill-rule="evenodd" transform="matrix(-0.664761 -0.747056 -0.74926 0.662805 445.901 57.5635)"/><text fill="#C00000" font-family="Times New Roman,Times New Roman_MSFontService,sans-serif" font-weight="700" font-size="12" transform="matrix(1 0 0 0.997059 565.889 57)">3.06%p</text><text fill="#C00000" font-family="Times New Roman,Times New Roman_MSFontService,sans-serif" font-weight="700" font-size="12" transform="matrix(1 0 0 0.997059 612.766 46)">31.29</text><text fill="#C00000" font-family="Cambria Math,Cambria Math_MSFontService,sans-serif" font-weight="400" font-size="12" transform="matrix(1 0 0 0.997059 639.766 46)"></text></g></svg>